<svg xmlns="http://www.w3.org/2000/svg" xmlns:xlink="http://www.w3.org/1999/xlink" width="415.261" height="415.261" viewBox="0 0 415.261 415.261">
  <defs>
    <filter id="多边形_31" x="0" y="0" width="415.261" height="415.261" filterUnits="userSpaceOnUse">
      <feOffset input="SourceAlpha"/>
      <feGaussianBlur stdDeviation="15" result="blur"/>
      <feFlood flood-color="#70dce2" flood-opacity="0.122"/>
      <feComposite operator="in" in2="blur"/>
      <feComposite in="SourceGraphic"/>
    </filter>
    <linearGradient id="linear-gradient" y1="0.137" x2="1" y2="0.807" gradientUnits="objectBoundingBox">
      <stop offset="0" stop-color="#61bded"/>
      <stop offset="1" stop-color="#93f4fa"/>
    </linearGradient>
    <linearGradient id="linear-gradient-2" y1="0.137" x2="1" y2="0.807" gradientUnits="objectBoundingBox">
      <stop offset="0" stop-color="#3ba3d9"/>
      <stop offset="1" stop-color="#85e4ea"/>
    </linearGradient>
    <linearGradient id="linear-gradient-3" y1="0.137" x2="1" y2="0.807" gradientUnits="objectBoundingBox">
      <stop offset="0" stop-color="#389fd5"/>
      <stop offset="1" stop-color="#73dae0"/>
    </linearGradient>
  </defs>
  <g id="组_871" data-name="组 871" transform="translate(125.991 -1888.53)">
    <g id="多边形_32" data-name="多边形 32" transform="translate(-115.791 2110.568) rotate(-45)" fill="none">
      <path d="M207.388,0a30,30,0,0,1,25.965,14.973l57.535,99.417a30,30,0,0,1,0,30.053l-57.535,99.417a30,30,0,0,1-25.965,14.973H92.2a30,30,0,0,1-25.965-14.973L8.7,144.444a30,30,0,0,1,0-30.053L66.231,14.973A30,30,0,0,1,92.2,0Z" stroke="none"/>
      <path d="M 92.19618225097656 1 C 87.11787414550781 1 82.10833740234375 2.340911865234375 77.70907592773438 4.877838134765625 C 73.30984497070312 7.41473388671875 69.64002990722656 11.07891845703125 67.09634399414062 15.47425842285156 L 9.5616455078125 114.8916473388672 C 7.01019287109375 119.300537109375 5.661529541015625 124.3234558105469 5.661529541015625 129.4173736572266 C 5.661529541015625 134.5113525390625 7.01019287109375 139.5342712402344 9.5616455078125 143.9431457519531 L 67.09629821777344 243.3605651855469 C 69.63995361328125 247.7559204101562 73.30976867675781 251.4200744628906 77.70903015136719 253.9570007324219 C 82.10830688476562 256.4939270019531 87.11784362792969 257.8348388671875 92.19615173339844 257.8348388671875 L 207.3884582519531 257.8348388671875 C 212.4667663574219 257.8348388671875 217.4763488769531 256.4939270019531 221.8755798339844 253.9570007324219 C 226.2748413085938 251.4201049804688 229.9446411132812 247.7559204101562 232.4883117675781 243.3605651855469 L 290.0230102539062 143.9431915283203 C 292.574462890625 139.5343017578125 293.9231262207031 134.5113830566406 293.9231262207031 129.4174194335938 C 293.9231262207031 124.3234558105469 292.574462890625 119.300537109375 290.0230102539062 114.8916473388672 L 232.4883117675781 15.47425842285156 C 229.9446105957031 11.07891845703125 226.2748107910156 7.41473388671875 221.8755798339844 4.877838134765625 C 217.4763488769531 2.340911865234375 212.4667663574219 1 207.3884582519531 1 L 92.19618225097656 1 M 92.19618225097656 0 L 207.3884582519531 0 C 218.095458984375 0 227.9908142089844 5.706344604492188 233.3538055419922 14.97337341308594 L 290.8884887695312 114.3907623291016 C 296.2680053710938 123.6863403320312 296.2680053710938 135.1484985351562 290.8884887695312 144.4440765380859 L 233.3538055419922 243.8614501953125 C 227.9908447265625 253.1284942626953 218.0954284667969 258.8348388671875 207.3884582519531 258.8348388671875 L 92.19615173339844 258.8348388671875 C 81.48919677734375 258.8348388671875 71.59376525878906 253.1284637451172 66.23080444335938 243.8614501953125 L 8.696136474609375 144.4440307617188 C 3.316680908203125 135.1484680175781 3.316680908203125 123.6863403320312 8.696136474609375 114.3907623291016 L 66.23085021972656 14.97337341308594 C 71.59384155273438 5.706344604492188 81.48922729492188 0 92.19618225097656 0 Z" stroke="none" fill="#e6e6e6"/>
    </g>
    <g transform="matrix(1, 0, 0, 1, -125.99, 1888.53)" filter="url(#多边形_31)">
      <path id="多边形_31-2" data-name="多边形 31" d="M167.723,0a30,30,0,0,1,25.969,14.981l44.326,76.642a30,30,0,0,1,0,30.039L193.693,198.3a30,30,0,0,1-25.97,14.981H78.982A30,30,0,0,1,53.012,198.3L8.687,121.661a30,30,0,0,1,0-30.039L53.012,14.981A30,30,0,0,1,78.982,0Z" transform="translate(45 219.45) rotate(-45)" fill="#fff"/>
    </g>
    <g id="椭圆_13" data-name="椭圆 13" transform="translate(197 2149)" stroke="#fff" stroke-width="2" fill="url(#linear-gradient)">
      <ellipse cx="7" cy="6.5" rx="7" ry="6.5" stroke="none"/>
      <ellipse cx="7" cy="6.5" rx="8" ry="7.5" fill="none"/>
    </g>
    <g id="椭圆_12" data-name="椭圆 12" transform="translate(76 1958)" stroke="#fff" stroke-width="2" fill="url(#linear-gradient-2)">
      <circle cx="6" cy="6" r="6" stroke="none"/>
      <circle cx="6" cy="6" r="7" fill="none"/>
    </g>
    <g id="椭圆_14" data-name="椭圆 14" transform="translate(-6 2205)" stroke="#fff" stroke-width="2" fill="url(#linear-gradient-3)">
      <circle cx="6" cy="6" r="6" stroke="none"/>
      <circle cx="6" cy="6" r="7" fill="none"/>
    </g>
  </g>
</svg>
