<svg xmlns="http://www.w3.org/2000/svg" width="20.706" height="18.047" viewBox="0 0 20.706 18.047">
  <g id="组_862" data-name="组 862" transform="translate(-31.95 -63.95)">
    <path id="路径_4704" data-name="路径 4704" d="M263.976,64a5.318,5.318,0,0,1,2.828,9.822,7.98,7.98,0,0,1,5.149,7.461.665.665,0,1,1-1.329,0,6.647,6.647,0,0,0-13.294,0,.665.665,0,1,1-1.329,0,7.98,7.98,0,0,1,5.149-7.461A5.318,5.318,0,0,1,263.976,64Zm0,1.329a3.988,3.988,0,1,0,3.988,3.988A3.988,3.988,0,0,0,263.976,65.329Z" transform="translate(-219.347)" fill="#999" stroke="#999" stroke-width="0.1"/>
    <path id="路径_4705" data-name="路径 4705" d="M38.647,128a.665.665,0,0,1,0,1.329,2.925,2.925,0,1,0,0,5.849.665.665,0,0,1,0,1.329c-.071,0-.142,0-.212-.005h-.009l-.078,0a5.019,5.019,0,0,0-5.019,5.019.665.665,0,0,1-1.329,0,6.35,6.35,0,0,1,4.037-5.914A4.254,4.254,0,0,1,38.647,128Z" transform="translate(0 -62.671)" fill="#ff8b00" stroke="#ff8b00" stroke-width="0.1"/>
  </g>
</svg>
