<svg xmlns="http://www.w3.org/2000/svg" width="18.919" height="18.919" viewBox="0 0 18.919 18.919">
  <g id="组_864" data-name="组 864" transform="translate(-64 -64)">
    <path id="路径_4708" data-name="路径 4708" d="M80.892,64a2.027,2.027,0,0,1,2.027,2.027V80.892a2.027,2.027,0,0,1-2.027,2.027H66.027A2.027,2.027,0,0,1,64,80.892V66.027A2.027,2.027,0,0,1,66.027,64Zm0,1.351H66.027a.676.676,0,0,0-.676.676V80.892a.676.676,0,0,0,.676.676H80.892a.676.676,0,0,0,.676-.676V66.027A.676.676,0,0,0,80.892,65.351Zm-6.807,5.405a.676.676,0,0,1,1.233-.382L78.138,74.5V70.757a.676.676,0,1,1,1.351,0v5.922a.676.676,0,0,1-1.233.382L75.436,72.94v3.739a.676.676,0,1,1-1.351,0Z" fill="#999"/>
    <path id="路径_4709" data-name="路径 4709" d="M228.73,352a.676.676,0,1,1,0,1.351h-3.378v1.689h3.378a.676.676,0,0,1,.671.6l0,.079a.676.676,0,0,1-.676.676h-3.378v1.53h3.378a.676.676,0,1,1,0,1.351h-4.054A.676.676,0,0,1,224,358.6v-5.922a.676.676,0,0,1,.676-.676Z" transform="translate(-156.622 -281.919)" fill="#ff8b00"/>
  </g>
</svg>
