<svg xmlns="http://www.w3.org/2000/svg" xmlns:xlink="http://www.w3.org/1999/xlink" width="41" height="47" viewBox="0 0 41 47">
  <defs>
    <clipPath id="clip-path">
      <rect id="矩形_869" data-name="矩形 869" width="41" height="47" transform="translate(359 2216)" fill="#fff" opacity="0.5"/>
    </clipPath>
    <linearGradient id="linear-gradient" x1="0.249" y1="0.012" x2="0.749" y2="0.991" gradientUnits="objectBoundingBox">
      <stop offset="0" stop-color="#2c85dd"/>
      <stop offset="1" stop-color="#3be2e6"/>
    </linearGradient>
    <filter id="多边形_45" x="-22.449" y="-15.457" width="86.896" height="85.066" filterUnits="userSpaceOnUse">
      <feOffset dx="5" dy="10" input="SourceAlpha"/>
      <feGaussianBlur stdDeviation="7.5" result="blur"/>
      <feFlood flood-color="#6ce2e9" flood-opacity="0.349"/>
      <feComposite operator="in" in2="blur"/>
      <feComposite in="SourceGraphic"/>
    </filter>
  </defs>
  <g id="蒙版组_3" data-name="蒙版组 3" transform="translate(-359 -2216)" clip-path="url(#clip-path)">
    <g transform="matrix(1, 0, 0, 1, 359, 2216)" filter="url(#多边形_45)">
      <path id="多边形_45-2" data-name="多边形 45" d="M22.092,0a4,4,0,0,1,3.444,1.965l5.761,9.75a4,4,0,0,1,0,4.07l-5.761,9.75A4,4,0,0,1,22.092,27.5H10.408a4,4,0,0,1-3.444-1.965L1.2,15.785a4,4,0,0,1,0-4.07l5.761-9.75A4,4,0,0,1,10.408,0Z" transform="translate(8.8 -2.96) rotate(30)" fill="url(#linear-gradient)"/>
    </g>
  </g>
</svg>
