<svg xmlns="http://www.w3.org/2000/svg" width="19.219" height="19.535" viewBox="0 0 19.219 19.535">
  <g id="组_863" data-name="组 863" transform="translate(-33.61 -29.034)">
    <path id="路径_4706" data-name="路径 4706" d="M37.878,273.218a1.016,1.016,0,0,1-.807-.409.482.482,0,0,1-.1-.306l-.01-1.226a.358.358,0,0,0-.153-.3.826.826,0,0,0-.276-.112h-1.7a1.094,1.094,0,0,1-1.073-1.113V259.684a1.1,1.1,0,0,1,1.062-1.124h.582a.5.5,0,1,1,0,1H35.12a.353.353,0,0,0-.358.347v9.612a.362.362,0,0,0,.358.358h1.348a1.712,1.712,0,0,1,1.43.858.474.474,0,0,1,.061.235v.337a.356.356,0,0,0,.215.327.314.314,0,0,0,.133.031.366.366,0,0,0,.245-.092l.919-.868a.27.27,0,0,0,.051-.061,1.747,1.747,0,0,1,1.369-.746h6.2a.341.341,0,0,0,.337-.255.5.5,0,0,1,.613-.347.506.506,0,0,1,.368.49v.184a.478.478,0,0,1-.092.286c-.01.02-.02.031-.031.051a1.067,1.067,0,0,1-.95.6H40.83a.745.745,0,0,0-.439.255.223.223,0,0,0-.031.051,1.5,1.5,0,0,1-.1.133l-1.573,1.5-.02.02A1.167,1.167,0,0,1,37.878,273.218Z" transform="translate(0 -224.8)" fill="#999" stroke="#999" stroke-width="0.3"/>
    <path id="路径_4707" data-name="路径 4707" d="M258.36,43.842a1.022,1.022,0,0,1-.766-.368l-.02-.02-1.583-1.5a.48.48,0,0,1-.092-.123.31.31,0,0,0-.051-.072.745.745,0,0,0-.439-.255h-6.527a1.149,1.149,0,0,1-1.073-1.124V30.308a1.306,1.306,0,0,1,.1-.48,1.062,1.062,0,0,1,.96-.644h12.523a1.091,1.091,0,0,1,.96.644,1.128,1.128,0,0,1,.1.48V40.369a1.138,1.138,0,0,1-.051.317,1.079,1.079,0,0,1-1.022.807H259.7a.761.761,0,0,0-.286.112.343.343,0,0,0-.163.3l-.01,1.226a.494.494,0,0,1-.1.3.927.927,0,0,1-.776.419Zm-9.193-13.668a.362.362,0,0,0-.358.358v9.612a.362.362,0,0,0,.358.358h6.16a1.792,1.792,0,0,1,1.185.531l.01.01a1.667,1.667,0,0,1,.174.2.271.271,0,0,0,.051.061l.919.868a.354.354,0,0,0,.5-.01.41.41,0,0,0,.1-.245v-.337a.412.412,0,0,1,.061-.225,1.247,1.247,0,0,1,.245-.327,1.157,1.157,0,0,1,.133-.1l.072-.051a1.641,1.641,0,0,1,1-.378h1.348a.362.362,0,0,0,.358-.358V30.532a.362.362,0,0,0-.358-.358Z" transform="translate(-209.777)" fill="#999" stroke="#999" stroke-width="0.3"/>
    <circle id="椭圆_24" data-name="椭圆 24" cx="1.046" cy="1.046" r="1.046" transform="translate(40.598 34.266)" fill="#ff8b00"/>
    <circle id="椭圆_25" data-name="椭圆 25" cx="1.046" cy="1.046" r="1.046" transform="translate(44.316 34.266)" fill="#ff8b00"/>
    <circle id="椭圆_26" data-name="椭圆 26" cx="1.046" cy="1.046" r="1.046" transform="translate(47.977 34.266)" fill="#ff8b00"/>
  </g>
</svg>
