<svg id="图层_1" data-name="图层 1" xmlns="http://www.w3.org/2000/svg" width="37.97" height="41.35" viewBox="0 0 37.97 41.35">
  <defs>
    <style>
      .cls-1 {
        fill: #ff8b00;
      }

      .cls-2 {
        fill: #fff;
      }
    </style>
  </defs>
  <g id="icon-connectus-default">
    <path id="多边形_33-2" data-name="多边形 33-2" class="cls-1" d="M35.15,8.42a6,6,0,0,1,3,5.14l.14,14.61a6,6,0,0,1-3,5.29L22.51,40.64a6,6,0,0,1-6,0L3.47,33.05a6,6,0,0,1-3-5.13L.32,13.3A6,6,0,0,1,3.37,8L16.11.83a6,6,0,0,1,5.94,0Z" transform="translate(-0.32 -0.06)"/>
    <path id="路径_3866" data-name="路径 3866" class="cls-2" d="M15,12.43a3.43,3.43,0,1,0-3.42,3.44,3.4,3.4,0,0,0,1.4-.31.45.45,0,0,1,.48.09l.65.65a.44.44,0,0,1,0,.57,6,6,0,0,0-1.11,5.19.43.43,0,0,1-.2.47l-.31.18a.44.44,0,0,1-.49,0,3.43,3.43,0,1,0,1.25,2.68,3.51,3.51,0,0,0-.07-.72.45.45,0,0,1,.21-.46l.1-.05a.43.43,0,0,1,.56.11,6,6,0,0,0,3.58,2.25.43.43,0,0,1,.34.42v2.53a.43.43,0,0,1-.27.4,3.44,3.44,0,1,0,2.29,0,.43.43,0,0,1-.3-.41V26.9a.43.43,0,0,1,.34-.42,6,6,0,0,0,3.2-1.8.46.46,0,0,1,.53-.08l1,.59a.42.42,0,0,1,.2.48,3.44,3.44,0,1,0,4.24-2.37,3.11,3.11,0,0,0-.9-.13,3.41,3.41,0,0,0-2,.63.42.42,0,0,1-.46,0l-1.15-.67a.43.43,0,0,1-.19-.52A6.05,6.05,0,0,0,24.3,18a.42.42,0,0,1,.17-.56l1.72-1a3.42,3.42,0,1,0-.87-2.31,3.91,3.91,0,0,0,0,.49.42.42,0,0,1-.21.44L23.32,16.1a.44.44,0,0,1-.49,0A6,6,0,0,0,16,15.32a.43.43,0,0,1-.51-.08l-.76-.76a.42.42,0,0,1-.07-.5A3.6,3.6,0,0,0,15,12.43Zm-5.16,0a1.72,1.72,0,1,1,1.72,1.72h0A1.73,1.73,0,0,1,9.86,12.43ZM20.68,33A1.72,1.72,0,1,1,19,31.33h0A1.72,1.72,0,0,1,20.68,33Zm9.37-6.44a1.72,1.72,0,1,1-1.72-1.71h0a1.72,1.72,0,0,1,1.72,1.71ZM27,14.15a1.72,1.72,0,1,1,1.72,1.72h0A1.72,1.72,0,0,1,27,14.15ZM11.58,25.31A1.72,1.72,0,1,1,9.86,23.6h0A1.72,1.72,0,0,1,11.58,25.31Zm10.34-7.75a4.3,4.3,0,1,1-3-1.26A4.28,4.28,0,0,1,21.92,17.56Z" transform="translate(-0.32 -0.06)"/>
  </g>
</svg>
