<svg xmlns="http://www.w3.org/2000/svg" width="20.107" height="20.174" viewBox="0 0 20.107 20.174">
  <g id="组_871" data-name="组 871" transform="translate(-548.946 -200.913)">
    <rect id="矩形_865" data-name="矩形 865" width="2" height="10" rx="1" transform="translate(554 218) rotate(-90)" fill="#ff8b00"/>
    <path id="路径_4701" data-name="路径 4701" d="M107.88,109.9l7.76-5.57a1.852,1.852,0,0,1,2.16,0l7.76,5.57a2.91,2.91,0,0,1,1.213,2.364v8.982a2.91,2.91,0,0,1-2.91,2.91H109.577a2.91,2.91,0,0,1-2.91-2.91v-8.982a2.91,2.91,0,0,1,1.213-2.364Zm.926,1.29a1.323,1.323,0,0,0-.552,1.075v8.982a1.323,1.323,0,0,0,1.323,1.323h14.287a1.323,1.323,0,0,0,1.323-1.323v-8.982a1.323,1.323,0,0,0-.552-1.075l-7.761-5.57a.265.265,0,0,0-.308,0l-7.76,5.57Z" transform="translate(442.279 96.928)" fill="#999"/>
  </g>
</svg>
