<svg xmlns="http://www.w3.org/2000/svg" xmlns:xlink="http://www.w3.org/1999/xlink" width="750" height="387" viewBox="0 0 750 387">
  <defs>
    <clipPath id="clip-path">
      <rect id="矩形_874" data-name="矩形 874" width="750" height="387" transform="translate(-1937 4133)" fill="#fff"/>
    </clipPath>
    <linearGradient id="linear-gradient" x1="0.662" y1="0.997" x2="0.35" y2="-0.002" gradientUnits="objectBoundingBox">
      <stop offset="0" stop-color="#409ec3"/>
      <stop offset="1" stop-color="#085b7b"/>
    </linearGradient>
    <filter id="多边形_60" x="-471.033" y="-269.958" width="1712.065" height="1715.762" filterUnits="userSpaceOnUse">
      <feOffset dx="10" dy="20" input="SourceAlpha"/>
      <feGaussianBlur stdDeviation="25" result="blur"/>
      <feFlood flood-color="#8ce6eb" flood-opacity="0.58"/>
      <feComposite operator="in" in2="blur"/>
      <feComposite in="SourceGraphic"/>
    </filter>
  </defs>
  <g id="蒙版组_4" data-name="蒙版组 4" transform="translate(1937 -4133)" clip-path="url(#clip-path)">
    <g transform="matrix(1, 0, 0, 1, -1937, 4133)" filter="url(#多边形_60)">
      <path id="多边形_60-2" data-name="多边形 60" d="M862.5,0A40,40,0,0,1,897.21,20.123l272.324,475.564a40,40,0,0,1,0,39.754L897.21,1011.006a40,40,0,0,1-34.712,20.123H318.418a40,40,0,0,1-34.712-20.123L11.382,535.441a40,40,0,0,1,0-39.754L283.706,20.123A40,40,0,0,1,318.418,0Z" transform="matrix(0.69, -0.72, 0.72, 0.69, -406.03, 634.52)" fill="url(#linear-gradient)"/>
    </g>
  </g>
</svg>
