<svg xmlns="http://www.w3.org/2000/svg" xmlns:xlink="http://www.w3.org/1999/xlink" width="1304" height="628" viewBox="0 0 1304 628">
  <defs>
    <style>
      .cls-1 {
        fill: none;
      }

      .cls-2 {
        isolation: isolate;
      }

      .cls-3 {
        clip-path: url(#clip-path);
      }

      .cls-4 {
        fill: #fff;
      }

      .cls-10, .cls-11, .cls-13, .cls-14, .cls-15, .cls-16, .cls-17, .cls-18, .cls-19, .cls-20, .cls-21, .cls-22, .cls-23, .cls-24, .cls-25, .cls-26, .cls-27, .cls-28, .cls-30, .cls-31, .cls-32, .cls-34, .cls-35, .cls-37, .cls-38, .cls-39, .cls-4, .cls-40, .cls-41, .cls-42, .cls-43, .cls-5, .cls-8, .cls-9 {
        fill-rule: evenodd;
      }

      .cls-5 {
        fill: #9ad5bf;
      }

      .cls-10, .cls-6 {
        fill: #cbcbcb;
      }

      .cls-7, .cls-8 {
        fill: #979696;
      }

      .cls-9 {
        fill: #656666;
      }

      .cls-11 {
        fill: #ededed;
      }

      .cls-12 {
        fill: #686868;
      }

      .cls-13 {
        fill: #989898;
      }

      .cls-14 {
        fill: #bcbcbc;
      }

      .cls-15 {
        fill: #8baa38;
      }

      .cls-16 {
        fill: #6f812a;
      }

      .cls-17 {
        fill: #876542;
      }

      .cls-18 {
        fill: #abc341;
      }

      .cls-19 {
        fill: #849d34;
      }

      .cls-20 {
        fill: #e3fa69;
      }

      .cls-21 {
        fill: #62897f;
      }

      .cls-22 {
        fill: #84b4a5;
      }

      .cls-23 {
        fill: #4e4e4e;
      }

      .cls-24 {
        fill: #2e2e2e;
      }

      .cls-25 {
        fill: #721c25;
      }

      .cls-26, .cls-29 {
        fill: #353635;
      }

      .cls-27 {
        fill: #b62939;
      }

      .cls-28 {
        fill: #d54a52;
      }

      .cls-30 {
        fill: #64909c;
      }

      .cls-31 {
        fill: #a93542;
      }

      .cls-32 {
        fill: #defffa;
      }

      .cls-33 {
        fill: #d8d8d8;
      }

      .cls-34 {
        fill: #bf505c;
      }

      .cls-35 {
        fill: #f2da9c;
      }

      .cls-36 {
        fill: #3c3e4b;
      }

      .cls-37 {
        fill: #963b46;
      }

      .cls-38 {
        fill: #76232c;
      }

      .cls-39, .cls-44 {
        fill: #b2b2b2;
      }

      .cls-40 {
        fill: #e1be8f;
      }

      .cls-41 {
        fill: #e09393;
      }

      .cls-42 {
        fill: #e6b1b1;
      }

      .cls-43 {
        fill: #7d5757;
      }
    </style>
    <clipPath id="clip-path">
      <rect id="矩形_791" data-name="矩形 791" class="cls-1" width="1304" height="628" transform="translate(-0.405 0.112)"/>
    </clipPath>
  </defs>
  <g id="组_850" data-name="组 850" class="cls-2" transform="translate(0.405 -0.112)">
    <g id="组_849" data-name="组 849" class="cls-3">
      <path id="路径_4037" data-name="路径 4037" class="cls-4" d="M91.427,59.547a38.509,38.509,0,0,1,22,7c10.661-22.076,27.051-37,43-37,20.063,0,33.624,23.262,33,55,7.479-5.921,17.39-9,28-9,18.577,0,31.18,10.659,28,25h-193c0-22.944,17.123-41,39-41" transform="translate(70.167 39.564)"/>
      <path id="路径_4038" data-name="路径 4038" class="cls-4" d="M144.171,31.112c9.23,0,18.828,4.845,26,12,8.4-24.749,24.9-43,41-43,16.137,0,26.39,18.162,27,43a78.216,78.216,0,0,1,11-1c19.065,0,31.264,8.723,28,19h-153c-4.564-16.442,4.321-30,20-30" transform="translate(165.423)"/>
      <path id="路径_4039" data-name="路径 4039" class="cls-4" d="M340.569,46.586c8.61,0,16.746,4.034,24,10,9.38-22.05,26-38,42-38,17.627,0,28.911,19.359,29,45a62.835,62.835,0,0,1,30-8c20.72,0,34.546,11.128,31,24h-178c-4.961-17.868,4.962-33,22-33" transform="translate(427.025 25.526)"/>
      <path id="路径_4040" data-name="路径 4040" class="cls-4" d="M310.048,35.842c9.894,0,20.345,8.548,27,21h-48c3.581-12.452,11.106-21,21-21" transform="translate(389.546 48.27)"/>
      <path id="路径_4041" data-name="路径 4041" class="cls-4" d="M220.279,18.586c7.782,0,12,7.207,12,17h-38c8.049-9.793,18.218-17,26-17" transform="translate(262.315 25.526)"/>
      <path id="路径_4042" data-name="路径 4042" class="cls-5" d="M530.762,236.139a44.11,44.11,0,0,1,0,88v61h-111v-157c0-30.647,24.353-56,55-56s56,25.353,56,56h0Z" transform="translate(564.832 231.972)"/>
      <path id="路径_4043" data-name="路径 4043" class="cls-5" d="M410.376,152.44c25.165,0,45,20.835,45,46v213h-91v-213a46.312,46.312,0,0,1,46-46" transform="translate(491.219 205.671)"/>
      <rect id="矩形_780" data-name="矩形 780" class="cls-6" width="86" height="403" transform="translate(912.595 218.112)"/>
      <rect id="矩形_781" data-name="矩形 781" class="cls-7" width="28" height="403" transform="translate(998.595 214.112)"/>
      <path id="路径_4044" data-name="路径 4044" class="cls-8" d="M391.413,91.44h86v7h-86c-2.133,0-4-.867-4-3a4.1,4.1,0,0,1,4-4" transform="translate(522.181 122.672)"/>
      <path id="路径_4045" data-name="路径 4045" class="cls-9" d="M453.793,91.44h-28v7h28c2.133,0,4-.867,4-3a4.1,4.1,0,0,0-4-4" transform="translate(572.802 122.672)"/>
      <path id="路径_4046" data-name="路径 4046" class="cls-10" d="M446.2,67.231a56.9,56.9,0,0,1,57,57h-114a56.9,56.9,0,0,1,57-57" transform="translate(524.399 89.88)"/>
      <path id="路径_4047" data-name="路径 4047" class="cls-11" d="M432.2,73.141a42.97,42.97,0,0,1,43,43h-86a42.971,42.971,0,0,1,43-43" transform="translate(524.399 97.97)"/>
      <path id="路径_4048" data-name="路径 4048" class="cls-4" d="M414.593,75.689a15,15,0,0,1,11,18c-1.884,8.352-10.392,13.715-18,12s-11.882-9.648-10-18,9.392-13.716,17-12" transform="translate(535.002 101.422)"/>
      <path id="路径_4049" data-name="路径 4049" class="cls-8" d="M391.413,112.506h86v8h-86a4,4,0,0,1,0-8" transform="translate(522.181 151.606)"/>
      <path id="路径_4050" data-name="路径 4050" class="cls-9" d="M453.793,112.506h-28v8h28a4,4,0,0,0,0-8" transform="translate(572.802 151.606)"/>
      <path id="路径_4051" data-name="路径 4051" class="cls-8" d="M391.413,133.571h86v8h-86a4,4,0,0,1,0-8" transform="translate(522.181 180.54)"/>
      <path id="路径_4052" data-name="路径 4052" class="cls-9" d="M453.793,133.571h-28v8h28a4,4,0,0,0,0-8" transform="translate(572.802 180.54)"/>
      <path id="路径_4053" data-name="路径 4053" class="cls-8" d="M391.413,155.637h86v8h-86a4,4,0,0,1,0-8" transform="translate(522.181 209.474)"/>
      <path id="路径_4054" data-name="路径 4054" class="cls-9" d="M453.793,155.637h-28v8h28a4,4,0,0,0,0-8" transform="translate(572.802 209.474)"/>
      <path id="路径_4055" data-name="路径 4055" class="cls-8" d="M391.413,176.7h86v8h-86a4,4,0,0,1,0-8" transform="translate(522.181 238.409)"/>
      <path id="路径_4056" data-name="路径 4056" class="cls-9" d="M453.793,176.7h-28v8h28a4,4,0,0,0,0-8" transform="translate(572.802 238.409)"/>
      <path id="路径_4057" data-name="路径 4057" class="cls-8" d="M391.413,198.769h86v7h-86c-2.133,0-4-.867-4-3a4.1,4.1,0,0,1,4-4" transform="translate(522.181 267.343)"/>
      <path id="路径_4058" data-name="路径 4058" class="cls-9" d="M453.793,198.769h-28v7h28c2.133,0,4-.867,4-3a4.1,4.1,0,0,0-4-4" transform="translate(572.802 267.343)"/>
      <path id="路径_4059" data-name="路径 4059" class="cls-8" d="M391.413,219.834h86v8h-86a4,4,0,0,1,0-8" transform="translate(522.181 296.277)"/>
      <path id="路径_4060" data-name="路径 4060" class="cls-9" d="M453.793,219.834h-28v8h28a4,4,0,0,0,0-8" transform="translate(573.802 296.277)"/>
      <path id="路径_4061" data-name="路径 4061" class="cls-8" d="M391.413,241.9h86v7h-86a4.1,4.1,0,0,1-4-4c0-2.136,1.867-3,4-3" transform="translate(522.181 325.212)"/>
      <path id="路径_4062" data-name="路径 4062" class="cls-9" d="M453.793,241.9h-28v7h28a4.1,4.1,0,0,0,4-4c0-2.136-1.867-3-4-3" transform="translate(573.802 325.212)"/>
      <path id="路径_4063" data-name="路径 4063" class="cls-5" d="M413.151,154.5a54.08,54.08,0,0,1,54,54v201h-370c-5.306-6.794-8-15.709-8-25a40.109,40.109,0,0,1,37-40c-26.789-36.476-.882-101.123,70-77a69.333,69.333,0,0,1-3-21,67.168,67.168,0,0,1,67-67c23.494,0,44.1,12.658,56,31,6.367-9,16.137-15,28-15,5.552,0,11.33.707,16,3,4.353-25.392,26.366-44,53-44" transform="translate(119.443 207.612)"/>
      <path id="路径_4064" data-name="路径 4064" class="cls-4" d="M5.595,262.964h1282a4.685,4.685,0,0,1,5,5c0,3.039-1.961,6-5,6H5.595a6.388,6.388,0,0,1-6-6c0-3.039,2.961-5,6-5" transform="translate(0 354.147)"/>
      <rect id="矩形_782" data-name="矩形 782" class="cls-6" width="87" height="403" transform="translate(776.595 214.112)"/>
      <rect id="矩形_783" data-name="矩形 783" class="cls-7" width="28" height="403" transform="translate(863.595 214.112)"/>
      <path id="路径_4065" data-name="路径 4065" class="cls-8" d="M332.859,91.44h87v7h-87c-2.133,0-3-.867-3-3s.867-4,3-4" transform="translate(443.735 122.672)"/>
      <path id="路径_4066" data-name="路径 4066" class="cls-9" d="M396.24,91.44h-28v7h28c2.133,0,4-.867,4-3a4.1,4.1,0,0,0-4-4" transform="translate(495.355 122.672)"/>
      <path id="路径_4067" data-name="路径 4067" class="cls-10" d="M388.643,67.231a56.9,56.9,0,0,1,57,57h-115c0-31.555,26.443-57,58-57" transform="translate(445.952 89.88)"/>
      <path id="路径_4068" data-name="路径 4068" class="cls-11" d="M374.643,73.141a42.971,42.971,0,0,1,43,43h-87c0-23.771,20.227-43,44-43" transform="translate(445.952 97.97)"/>
      <path id="路径_4069" data-name="路径 4069" class="cls-4" d="M357.039,75.689c7.606,1.713,11.882,9.65,10,18s-9.392,13.715-17,12a15,15,0,0,1-11-18c1.882-8.35,10.392-13.716,18-12" transform="translate(456.556 101.422)"/>
      <path id="路径_4070" data-name="路径 4070" class="cls-8" d="M332.859,112.506h87v8h-87c-2.133,0-3-1.867-3-4s.867-4,3-4" transform="translate(443.735 151.606)"/>
      <path id="路径_4071" data-name="路径 4071" class="cls-9" d="M396.24,112.506h-28v8h28a4,4,0,0,0,0-8" transform="translate(495.355 151.606)"/>
      <path id="路径_4072" data-name="路径 4072" class="cls-8" d="M332.859,133.571h87v8h-87c-2.133,0-3-1.867-3-4s.867-4,3-4" transform="translate(443.735 180.54)"/>
      <path id="路径_4073" data-name="路径 4073" class="cls-9" d="M396.24,133.571h-28v8h28a4,4,0,0,0,0-8" transform="translate(495.355 180.54)"/>
      <path id="路径_4074" data-name="路径 4074" class="cls-8" d="M332.859,155.637h87v8h-87c-2.133,0-3-1.867-3-4s.867-4,3-4" transform="translate(443.735 209.474)"/>
      <path id="路径_4075" data-name="路径 4075" class="cls-9" d="M396.24,155.637h-28v8h28a4,4,0,0,0,0-8" transform="translate(495.355 209.474)"/>
      <path id="路径_4076" data-name="路径 4076" class="cls-8" d="M332.859,176.7h87v8h-87c-2.133,0-3-1.867-3-4s.867-4,3-4" transform="translate(443.735 238.409)"/>
      <path id="路径_4077" data-name="路径 4077" class="cls-9" d="M396.24,176.7h-28v8h28a4,4,0,0,0,0-8" transform="translate(495.355 238.409)"/>
      <path id="路径_4078" data-name="路径 4078" class="cls-8" d="M332.859,198.769h87v7h-87c-2.133,0-3-.867-3-3s.867-4,3-4" transform="translate(443.735 267.343)"/>
      <path id="路径_4079" data-name="路径 4079" class="cls-9" d="M396.24,198.769h-28v7h28c2.133,0,4-.867,4-3a4.1,4.1,0,0,0-4-4" transform="translate(495.355 267.343)"/>
      <path id="路径_4080" data-name="路径 4080" class="cls-8" d="M332.859,219.834h87v8h-87c-2.133,0-3-1.867-3-4s.867-4,3-4" transform="translate(443.735 296.277)"/>
      <path id="路径_4081" data-name="路径 4081" class="cls-9" d="M396.24,219.834h-28v8h28a4,4,0,0,0,0-8" transform="translate(495.355 296.277)"/>
      <path id="路径_4082" data-name="路径 4082" class="cls-8" d="M332.859,241.9h87v7h-87c-2.133,0-3-1.869-3-4s.867-3,3-3" transform="translate(443.735 325.212)"/>
      <path id="路径_4083" data-name="路径 4083" class="cls-9" d="M396.24,241.9h-28v7h28a4.1,4.1,0,0,0,4-4c0-2.136-1.867-3-4-3" transform="translate(495.355 325.212)"/>
      <path id="路径_4084" data-name="路径 4084" class="cls-12" d="M226.972,115.333a2.236,2.236,0,0,1-4-2l8-20-19,8a2.236,2.236,0,0,1-2-4l19-8-19-8a2.236,2.236,0,1,1,2-4l19,8-8-20a2.236,2.236,0,0,1,4-2l8,20,9-20a2.236,2.236,0,1,1,4,2l-8,20,19-8a2.236,2.236,0,1,1,2,4l-20,8,20,8a2.236,2.236,0,0,1-2,4l-19-8,8,20a2.236,2.236,0,1,1-4,2l-9-20Z" transform="translate(280.623 83.779)"/>
      <path id="路径_4085" data-name="路径 4085" class="cls-12" d="M240.658,75.185h1v-1h0c.153-.371-.246-.695,0-1h0c.042-.052-.045.049,0,0h1c.049-.045-.052.042,0,0h0c.307-.244.627-.847,1-1h0a6.462,6.462,0,0,1,1,0h1c.284.012-.265-.063,0,0h1c.371.153.695.756,1,1h0c.052.042-.052-.045,0,0h1c.045.049-.04-.052,0,0h0c.246.307-.153.632,0,1h0v1h1c.052.211-.019.779,0,1l7,85h6a4,4,0,0,1,0,8h-5l6,80h6c2.3,0,4,2.7,4,5a3.887,3.887,0,0,1-4,4h-5l7,80h6a3.887,3.887,0,0,1,4,4c0,2.3-1.7,5-4,5h-5l7,80h5a4,4,0,0,1,0,8h-5l8,85h-9l-7-85h-53l-7,85h-9l8-85h-5a4,4,0,0,1,0-8h5l7-80h-5c-2.3,0-4-2.7-4-5a3.887,3.887,0,0,1,4-4h6l7-80h-5a3.885,3.885,0,0,1-4-4c0-2.3,1.7-5,4-5h5l7-80h-5a4,4,0,0,1,0-8h6l7-85a9.488,9.488,0,0,1,0-1m30,352-7-80h-37l-7,80Zm-7-89-7-80h-23l-7,80Zm-8-89-7-80h-7l-7,80Zm-7-88-4-36-3,36Z" transform="translate(270.936 96.927)"/>
      <path id="路径_4086" data-name="路径 4086" class="cls-13" d="M226.041,68.4a12.362,12.362,0,0,1,12,12c0,6.36-5.64,11-12,11a10.655,10.655,0,0,1-11-11c0-6.357,4.64-12,11-12" transform="translate(289.554 92.71)"/>
      <path id="路径_4087" data-name="路径 4087" class="cls-14" d="M231.571,40.84l-10,51,11,4,28-43Z" transform="translate(299.023 55.272)"/>
      <path id="路径_4088" data-name="路径 4088" class="cls-14" d="M271.709,55.052l-42,29,4,10,50-10Z" transform="translate(308.886 74.06)"/>
      <path id="路径_4089" data-name="路径 4089" class="cls-14" d="M283.708,84.933l-50-9-4,10,42,29Z" transform="translate(308.886 102.179)"/>
      <path id="路径_4090" data-name="路径 4090" class="cls-14" d="M230.691,40.839l9,51-10,4-29-43Z" transform="translate(270.903 55.273)"/>
      <path id="路径_4091" data-name="路径 4091" class="cls-14" d="M199.479,55.049l42,29-4,10-50-10Z" transform="translate(252.115 74.063)"/>
      <path id="路径_4092" data-name="路径 4092" class="cls-14" d="M200.687,125.069l29-42,10,4-9,51Z" transform="translate(270.907 112.042)"/>
      <path id="路径_4093" data-name="路径 4093" class="cls-14" d="M231.57,138.07l-10-51,11-4,28,42Z" transform="translate(299.024 112.041)"/>
      <path id="路径_4094" data-name="路径 4094" class="cls-14" d="M199.478,114.933l42-29-4-10-50,9Z" transform="translate(252.116 102.179)"/>
      <path id="路径_4095" data-name="路径 4095" class="cls-10" d="M222.349,71.71c2.807,0,6,2.193,6,5s-3.193,5-6,5a5,5,0,0,1,0-10" transform="translate(293.246 96.401)"/>
      <path id="路径_4096" data-name="路径 4096" class="cls-15" d="M48.95,143.923c26.72,0,41,90.461,41,146s-13.688,92-41,92-55.2-51.5-34-79c-10.64-22.6-10.577-74.563,8-91-6.2-28.908,11.607-68,26-68" transform="translate(9.645 194.188)"/>
      <path id="路径_4097" data-name="路径 4097" class="cls-16" d="M40.03,143.923c26.72,0,41,90.461,41,146,0,.868.007,2.143,0,3s.012,1.15,0,2,.021,2.16,0,3c-1.195,50.357-14.864,82.93-40,84h0c-.42.016-.575,0-1,0-6.613,0-12.992-3.032-19-8-11.182-12.4-8.8-36.428,7-47,18.521-12.391-16.231-36.089,7-52,6.515-4.464,4.356-6.877,2-11-26.42-46.229,38.213-84.23,3-120" transform="translate(18.565 194.188)"/>
      <path id="路径_4098" data-name="路径 4098" class="cls-17" d="M23.882,286.65h6v-41a23.685,23.685,0,0,1-3,0,18.036,18.036,0,0,1-3,0Z" transform="translate(31.713 330.461)"/>
      <path id="路径_4099" data-name="路径 4099" class="cls-18" d="M105.774,180.465c42.24,0,77,34.76,77,77s-36.723,76-72,76c-21.513,0-62.016-6.245-69-52-26.16-19.467-17.36-80.724,30-84,1.945-11.743,20.4-17,34-17" transform="translate(36.82 243.646)"/>
      <path id="路径_4100" data-name="路径 4100" class="cls-19" d="M147.455,195a77.067,77.067,0,0,1,24,56c0,42.237-36.721,76-72,76-17.451,0-47.6-3.9-62-30-6.867-20.041,5.331-28.012,40-10,32.921,17.106,23.392-13,49-13,24.566,0,37.337-28.838,18-54-16.862-21.938-28.916-49.437,3-25" transform="translate(48.139 250.113)"/>
      <path id="路径_4101" data-name="路径 4101" class="cls-17" d="M61.462,285.739h6v-40c-.819.038-1.181,0-2,0-1.392,0-2.463.066-4,0Z" transform="translate(82.132 331.373)"/>
      <path id="路径_4102" data-name="路径 4102" class="cls-20" d="M46.347,219.933c10.544-3.194,8.93,13,0,13-8.878,0-10.572-16.224,0-13" transform="translate(52.247 296.179)"/>
      <path id="路径_4103" data-name="路径 4103" class="cls-20" d="M64.326,211.354c10.544-3.194,8.93,13,0,13-8.878,0-10.572-16.225,0-13" transform="translate(76.268 283.757)"/>
      <path id="路径_4104" data-name="路径 4104" class="cls-20" d="M83.971,219.933c10.544-3.194,8.929,13,0,13-8.878,0-10.572-16.224,0-13" transform="translate(102.624 296.179)"/>
      <path id="路径_4105" data-name="路径 4105" class="cls-20" d="M46.347,203.721c10.544-3.194,8.93,12,0,12-8.878,0-10.572-15.225,0-12" transform="translate(52.247 273.391)"/>
      <path id="路径_4106" data-name="路径 4106" class="cls-20" d="M83.971,203.721c10.544-3.194,8.929,12,0,12-8.878,0-10.572-15.225,0-12" transform="translate(102.624 273.391)"/>
      <path id="路径_4107" data-name="路径 4107" class="cls-20" d="M63.27,228.429c10.544-3.194,8.93,12,0,12-8.878,0-10.575-15.224,0-12" transform="translate(75.325 306.682)"/>
      <path id="路径_4108" data-name="路径 4108" class="cls-20" d="M64.915,193.784c10.544-3.194,8.93,13,0,13-8.878,0-10.575-16.225,0-13" transform="translate(77.679 260.327)"/>
      <path id="路径_4109" data-name="路径 4109" class="cls-21" d="M361,355.3v-107c0-57.318,78.154-75.54,102-24,24.566-16.026,48.57-13.787,54,11,39.689-18.939,92.986-14.89,93,36,17.2-13.815,50.578-3.225,44,31,32.479-11.983,61.881,20.929,55,53Z" transform="translate(485.599 261.814)"/>
      <path id="路径_4110" data-name="路径 4110" class="cls-22" d="M494.587,246.746c22.492,0,43.976,16.485,51,38h-89c-.108-21.515,15.509-38,38-38" transform="translate(615.008 332.366)"/>
      <path id="路径_4111" data-name="路径 4111" class="cls-18" d="M568.463,180.465c42.24,0,76,34.76,76,77s-36.723,76-72,76c-21.513,0-62.016-6.245-69-52-26.162-19.467-16.358-80.724,31-84,1.948-11.743,20.4-17,34-17" transform="translate(659.131 243.646)"/>
      <path id="路径_4112" data-name="路径 4112" class="cls-19" d="M609.144,195a77.067,77.067,0,0,1,24,56c0,42.237-36.721,76-72,76-17.451,0-46.6-3.9-61-30-6.869-20.041,4.331-28.012,39-10,32.921,17.106,24.392-13,50-13,24.566,0,36.337-28.838,17-54-16.862-21.938-28.914-49.437,3-25" transform="translate(670.451 250.113)"/>
      <path id="路径_4113" data-name="路径 4113" class="cls-17" d="M523.15,285.739h7v-40c-.819.038-2.179,0-3,0-1.392,0-2.46.066-4,0Z" transform="translate(704.444 331.373)"/>
      <path id="路径_4114" data-name="路径 4114" class="cls-20" d="M508.036,219.933c10.544-3.194,8.93,13,0,13-8.878,0-10.574-16.224,0-13" transform="translate(674.558 296.179)"/>
      <path id="路径_4115" data-name="路径 4115" class="cls-20" d="M526.015,211.354c10.544-3.194,8.929,13,0,13-8.878,0-10.575-16.225,0-13" transform="translate(698.58 283.757)"/>
      <path id="路径_4116" data-name="路径 4116" class="cls-20" d="M545.66,219.933c10.544-3.194,8.929,13,0,13-8.878,0-10.575-16.224,0-13" transform="translate(724.935 296.179)"/>
      <path id="路径_4117" data-name="路径 4117" class="cls-20" d="M508.036,203.721c10.544-3.194,8.93,12,0,12-8.878,0-10.574-15.225,0-12" transform="translate(674.558 273.391)"/>
      <path id="路径_4118" data-name="路径 4118" class="cls-20" d="M545.66,203.721c10.544-3.194,8.929,12,0,12-8.878,0-10.575-15.225,0-12" transform="translate(724.935 273.391)"/>
      <path id="路径_4119" data-name="路径 4119" class="cls-20" d="M524.957,228.429c10.544-3.194,8.93,12,0,12-8.878,0-10.572-15.224,0-12" transform="translate(697.637 306.682)"/>
      <path id="路径_4120" data-name="路径 4120" class="cls-20" d="M526.6,193.784c10.544-3.194,8.929,13,0,13-8.878,0-10.572-16.225,0-13" transform="translate(699.992 260.327)"/>
      <path id="路径_4121" data-name="路径 4121" class="cls-21" d="M344.1,210.98a38.078,38.078,0,0,1,38,38v84h-227a33.533,33.533,0,0,1,33-28,34.381,34.381,0,0,1,13,3,35.2,35.2,0,0,1,0-5c0-17.359,13.641-32,31-32,8.186,0,16.408,3.872,22,9a49.749,49.749,0,0,1,40-20,46.736,46.736,0,0,1,14,2,38.477,38.477,0,0,1-2-13,38.078,38.078,0,0,1,38-38" transform="translate(209.491 284.132)"/>
      <path id="路径_4122" data-name="路径 4122" class="cls-23" d="M146.543,190.512h8c.812,0,1,.188,1,1v40c-3.215.2-6.827.521-11,1v-41c0-.812,1.188-1,2-1" transform="translate(195.052 256.6)"/>
      <path id="路径_4123" data-name="路径 4123" class="cls-24" d="M150.15,227.183a42,42,0,1,1-42,42,41.991,41.991,0,0,1,42-42" transform="translate(145.444 305.928)"/>
      <path id="路径_4124" data-name="路径 4124" class="cls-13" d="M139.478,235.511a23,23,0,0,1,0,46c-12.931,0-24-10.069-24-23s11.069-23,24-23" transform="translate(156.116 316.6)"/>
      <path id="路径_4125" data-name="路径 4125" class="cls-24" d="M223.62,214.852a55.627,55.627,0,0,1,56,56c0,31.222-24.778,57-56,57a57.333,57.333,0,0,1-57-57c0-31.224,25.776-56,57-56" transform="translate(224.975 289.259)"/>
      <path id="路径_4126" data-name="路径 4126" class="cls-13" d="M210.961,224.2a33.669,33.669,0,0,1,34,34c0,19.042-14.958,35-34,35a35.376,35.376,0,0,1-35-35c0-19.039,15.958-34,35-34" transform="translate(237.633 301.916)"/>
      <path id="路径_4127" data-name="路径 4127" class="cls-25" d="M113.268,241.907c4.555-25.641,74.615-34,93-34h0a166.589,166.589,0,0,0,2,51h29a63.662,63.662,0,0,1,108-20l-5,4c-10.366-11.957-25.934-19-43-19-31.222,0-57,24.776-57,56,0,6.454,2.01,13.222,4,19h-58c.094-1.15,0-2.824,0-4h0a41.789,41.789,0,0,0-73-28l-1-8Z" transform="translate(151.327 280.205)"/>
      <path id="路径_4128" data-name="路径 4128" class="cls-26" d="M164.095,186.743h83l9,51c-1.647-.42-3.292-.709-5-1-24.8-4.215-67.091,7.739-72,51h-24c-6.594-33.165-2.02-66.2,9-101" transform="translate(204.5 251.369)"/>
      <path id="路径_4129" data-name="路径 4129" class="cls-27" d="M241.238,184.024c-27.016-3.18-52.311-2.452-82,3-3.377.425-4.368,6-1,6h83c4.787,0,5.771-8.322,0-9" transform="translate(210.356 245.088)"/>
      <path id="路径_4130" data-name="路径 4130" class="cls-28" d="M278.184,236.474c1.427,2.091.69,5.333-1,4a63.792,63.792,0,0,0-109,19h-5c4.912-43.261,47.2-55.217,72-51a65.429,65.429,0,0,1,43,28" transform="translate(220.41 279.638)"/>
      <path id="路径_4131" data-name="路径 4131" class="cls-23" d="M105.641,231.587h16a5.363,5.363,0,0,1,5,5,42,42,0,0,0-9,26h-12a5.337,5.337,0,0,1-5-5v-21a5.337,5.337,0,0,1,5-5" transform="translate(135.954 312.525)"/>
      <path id="路径_4132" data-name="路径 4132" class="cls-23" d="M131.98,241.014a10,10,0,1,1-10,10,9.762,9.762,0,0,1,10-10" transform="translate(163.614 324.098)"/>
      <path id="路径_4133" data-name="路径 4133" class="cls-28" d="M113.042,241.907c4.555-25.641,74.615-34,93-34h0a166.589,166.589,0,0,0,2,51h-23c-9.955-11.314-24.746-18-41-18a56.082,56.082,0,0,0-32,10Z" transform="translate(151.552 280.205)"/>
      <path id="路径_4134" data-name="路径 4134" class="cls-28" d="M140.667,222.246a53.777,53.777,0,0,1,54,54h-6a47.845,47.845,0,0,0-48-48c-8.176,0-16.253,1.407-23,5l-3-5c7.6-4.046,16.789-6,26-6" transform="translate(154.927 298.866)"/>
      <path id="路径_4135" data-name="路径 4135" class="cls-29" d="M150.8,205.028v-9a10.447,10.447,0,0,0-3-7,8.739,8.739,0,0,0-5-3v-6a16.061,16.061,0,0,1,10,5,15.42,15.42,0,0,1,4,11v9Z" transform="translate(191.793 242.084)"/>
      <path id="路径_4136" data-name="路径 4136" class="cls-30" d="M175.279,186.737h36l3,47c-18.941,5.883-35.954,19.75-41,43-.946,4.358-3.848,6-7,6h-2c-3.17,0-7.378-2.064-8-6-4.022-25.416.371-55.528,8-82,1.4-4.839,4.652-8,11-8m42,0h12c3.821,0,8.106,1.834,9,6l5,32c.737,4.126-2.09,5.866-5,6-5.085.235-13.072.85-18,2Z" transform="translate(208.316 251.374)"/>
      <path id="路径_4137" data-name="路径 4137" class="cls-31" d="M198.513,216.759a185.7,185.7,0,0,0,3,30h-23c-9.953-11.314-24.746-18-41-18-7.061,0-13.814.55-20,3,21.773-9.3,63.035-15,81-15" transform="translate(158.081 292.353)"/>
      <path id="路径_4138" data-name="路径 4138" class="cls-32" d="M177.019,188.974h28l2,41c-5.013,1.558-14.764,5.006-19,8-2.171,1.535-6.328,5.521-12,4l-19-8a18.939,18.939,0,0,1,0-2c.988-12.288,6.541-26.693,11-36,1.908-3.985,3.436-7,9-7m37,0h5c3.349,0,7.216,2.346,8,6l5,28c.392,2.187-.618,3.186-2,4-2.2.153-9.348.587-13,1Z" transform="translate(211.576 255.137)"/>
      <path id="路径_4139" data-name="路径 4139" class="cls-26" d="M159.346,231.41h28a53.968,53.968,0,0,0-3,17,60.33,60.33,0,0,0,2,15h-22a7.491,7.491,0,0,1-7-6l-3-20a5.037,5.037,0,0,1,5-6" transform="translate(207.248 311.702)"/>
      <path id="路径_4140" data-name="路径 4140" class="cls-23" d="M214.919,236.812h10c2.1,0,4,.9,4,3v5c0,2.1-1.9,3-4,3h-10a56.239,56.239,0,0,0,0-6,39.066,39.066,0,0,0,0-5" transform="translate(289.675 318.3)"/>
      <path id="路径_4141" data-name="路径 4141" class="cls-33" d="M216.973,240.835a5.1,5.1,0,0,1,10-2c.2.915-.1,2.028,0,3a12.348,12.348,0,0,1,0,2,28.961,28.961,0,0,1-8,20,26.584,26.584,0,0,1-19,8,30.632,30.632,0,0,1-7-1c-2.129-.535-4-1.928-6-3a4.317,4.317,0,0,1-2-6,5.5,5.5,0,0,1,7-2,18.481,18.481,0,0,0,4,2c1.394.35,2.517,0,4,0a17.147,17.147,0,0,0,18-18,5.629,5.629,0,0,0,0-1c-.066-.608-.862-1.359-1-2" transform="translate(248.621 316.277)"/>
      <path id="路径_4142" data-name="路径 4142" class="cls-23" d="M198.092,233.324a11.964,11.964,0,0,1,12,12c0,6.655-5.345,13-12,13s-12-6.345-12-13a11.964,11.964,0,0,1,12-12" transform="translate(250.503 314.787)"/>
      <path id="路径_4143" data-name="路径 4143" class="cls-23" d="M192.884,228.031a3,3,0,1,0,3,3,3.018,3.018,0,0,0-3-3" transform="translate(255.711 307.081)"/>
      <path id="路径_4144" data-name="路径 4144" class="cls-23" d="M201.969,237.116a3,3,0,1,0,3,3,3.018,3.018,0,0,0-3-3" transform="translate(268.625 319.995)"/>
      <path id="路径_4145" data-name="路径 4145" class="cls-23" d="M192.884,247.2a3,3,0,1,0,3,3,3.017,3.017,0,0,0-3-3" transform="translate(255.711 332.911)"/>
      <path id="路径_4146" data-name="路径 4146" class="cls-23" d="M182.8,237.116a3,3,0,1,0,3,3,3.018,3.018,0,0,0-3-3" transform="translate(242.797 319.995)"/>
      <path id="路径_4147" data-name="路径 4147" class="cls-34" d="M231.239,293.168l27-27,33-98,114-67,114,67,34,98,27,27v188h-349Z" transform="translate(311.356 135.944)"/>
      <path id="路径_4148" data-name="路径 4148" class="cls-35" d="M552.022,168l-128-75-127,75-34,100-45,44a3.554,3.554,0,0,0,0,5l7,7a3.556,3.556,0,0,0,5,0l47-47,33-98,114-67,114,67,34,98,47,47a3.556,3.556,0,0,0,5,0l6-7a3.552,3.552,0,0,0,0-5l-44-44Z" transform="translate(292.572 125.109)"/>
      <rect id="矩形_784" data-name="矩形 784" class="cls-36" width="88" height="147" transform="translate(672.595 470.112)"/>
      <path id="路径_4149" data-name="路径 4149" class="cls-35" d="M264.522,337.07h62v-116Zm57-127h-62v117Zm15,137h-87v-147h87Z" transform="translate(336.072 270.042)"/>
      <path id="路径_4150" data-name="路径 4150" class="cls-35" d="M396.128,337.07h-62v-116Zm-57-127h62v117Zm-15,137h87v-147h-87Z" transform="translate(436.467 270.042)"/>
      <path id="路径_4151" data-name="路径 4151" class="cls-37" d="M231.239,186V374h5V181Z" transform="translate(311.356 243.113)"/>
      <path id="路径_4152" data-name="路径 4152" class="cls-37" d="M241.148,177.9v213h6v-223l-3,8Z" transform="translate(325.446 226.213)"/>
      <path id="路径_4153" data-name="路径 4153" class="cls-37" d="M252.058,152.192v133h5v-148Z" transform="translate(339.536 184.92)"/>
      <path id="路径_4154" data-name="路径 4154" class="cls-37" d="M262.968,127.721v174h5v-177Z" transform="translate(353.626 168.391)"/>
      <path id="路径_4155" data-name="路径 4155" class="cls-37" d="M272.878,122.048v188h5v-191Z" transform="translate(367.716 160.063)"/>
      <path id="路径_4156" data-name="路径 4156" class="cls-37" d="M283.788,115.376v203h5v-206Z" transform="translate(381.807 151.735)"/>
      <path id="路径_4157" data-name="路径 4157" class="cls-37" d="M293.7,109.7v217h5v-220Z" transform="translate(395.897 143.409)"/>
      <path id="路径_4158" data-name="路径 4158" class="cls-37" d="M304.608,102.168v232h5v-232l-3-1Z" transform="translate(409.987 135.944)"/>
      <path id="路径_4159" data-name="路径 4159" class="cls-37" d="M314.518,106.7v220h5v-217Z" transform="translate(424.077 143.409)"/>
      <path id="路径_4160" data-name="路径 4160" class="cls-37" d="M325.428,112.375v206h5v-203Z" transform="translate(438.167 151.736)"/>
      <path id="路径_4161" data-name="路径 4161" class="cls-37" d="M335.337,119.048v191h6v-188Z" transform="translate(452.257 160.064)"/>
      <path id="路径_4162" data-name="路径 4162" class="cls-37" d="M346.247,124.721v177h5v-174Z" transform="translate(466.347 168.391)"/>
      <path id="路径_4163" data-name="路径 4163" class="cls-37" d="M357.157,137.191v148h5v-133Z" transform="translate(480.438 184.921)"/>
      <path id="路径_4164" data-name="路径 4164" class="cls-37" d="M367.067,167.9v223h5v-213l-2-2Z" transform="translate(494.528 226.215)"/>
      <path id="路径_4165" data-name="路径 4165" class="cls-37" d="M377.977,181V374h5V186Z" transform="translate(508.618 243.113)"/>
      <rect id="矩形_785" data-name="矩形 785" class="cls-36" width="32" height="33" transform="translate(658.595 358.112)"/>
      <path id="路径_4166" data-name="路径 4166" class="cls-35" d="M274.2,148.909v-10h62v10h-5v70h-10v-5h-32v5h-10v-70Zm15,16h32v-16h-32Zm32,7h-32v32h32Z" transform="translate(369.394 187.203)"/>
      <rect id="矩形_786" data-name="矩形 786" class="cls-36" width="32" height="16" transform="translate(658.595 336.112)"/>
      <rect id="矩形_787" data-name="矩形 787" class="cls-36" width="33" height="33" transform="translate(742.595 358.112)"/>
      <path id="路径_4167" data-name="路径 4167" class="cls-35" d="M310.594,148.909v-10h62v10h-5v70h-10v-5h-33v5h-9v-70Zm14,16h33v-16h-33Zm33,7h-33v32h33Z" transform="translate(418.001 187.203)"/>
      <rect id="矩形_788" data-name="矩形 788" class="cls-36" width="33" height="16" transform="translate(742.595 336.112)"/>
      <rect id="矩形_789" data-name="矩形 789" class="cls-6" width="315" height="7" transform="translate(559.595 457.112)"/>
      <path id="路径_4168" data-name="路径 4168" class="cls-23" d="M337.676,189.709a8.668,8.668,0,0,1,9,9c0,5.247-3.753,10-9,10a10.375,10.375,0,0,1-10-10c0-5.247,4.753-9,10-9" transform="translate(441.918 255.402)"/>
      <path id="路径_4169" data-name="路径 4169" class="cls-10" d="M331.09,211.123v-16a3,3,0,0,1,6,0v16Z" transform="translate(445.505 258.989)"/>
      <path id="路径_4170" data-name="路径 4170" class="cls-23" d="M358.441,189.709c5.247,0,10,3.753,10,9a10.375,10.375,0,0,1-10,10c-5.247,0-9-4.753-9-10a8.668,8.668,0,0,1,9-9" transform="translate(470.154 255.402)"/>
      <path id="路径_4171" data-name="路径 4171" class="cls-10" d="M351.853,211.123v-16a3,3,0,0,1,6,0v16Z" transform="translate(473.741 258.989)"/>
      <path id="路径_4172" data-name="路径 4172" class="cls-23" d="M263.069,189.709c5.247,0,10,3.753,10,9a10.375,10.375,0,0,1-10,10c-5.247,0-9-4.753-9-10a8.668,8.668,0,0,1,9-9" transform="translate(341.525 255.402)"/>
      <path id="路径_4173" data-name="路径 4173" class="cls-10" d="M256.483,211.123v-16a3,3,0,0,1,6,0v16Z" transform="translate(345.112 258.989)"/>
      <path id="路径_4174" data-name="路径 4174" class="cls-23" d="M283.835,189.709c5.247,0,10,3.753,10,9a10.375,10.375,0,0,1-10,10c-5.247,0-9-4.753-9-10a8.668,8.668,0,0,1,9-9" transform="translate(369.759 255.402)"/>
      <path id="路径_4175" data-name="路径 4175" class="cls-10" d="M277.248,211.123v-16a3,3,0,0,1,6,0v16Z" transform="translate(373.347 258.989)"/>
      <path id="路径_4176" data-name="路径 4176" class="cls-38" d="M405.239,101.168l114,67,8,22-110-65-114,67-34,98-38,38v-35l27-27,33-98Z" transform="translate(311.355 135.943)"/>
      <path id="路径_4177" data-name="路径 4177" class="cls-4" d="M286.479,286.591h14v39h9v-39h7a13.016,13.016,0,0,0,13-13v-44a13.016,13.016,0,0,0-13-13h-30Z" transform="translate(386.116 291.52)"/>
      <path id="路径_4178" data-name="路径 4178" class="cls-39" d="M300.6,252.938v40h10v-52c0,5.991-4.471,10.493-10,12" transform="translate(404.995 324.173)"/>
      <path id="路径_4179" data-name="路径 4179" class="cls-23" d="M302.672,232.539c-5.97,0-14.218,3.591-14,11s9.032,10,15,10,10.169-4.241,10-10-5.03-11-11-11" transform="translate(388.923 313.573)"/>
      <path id="路径_4180" data-name="路径 4180" class="cls-40" d="M293.365,218.316c5.379,5.3,11.634,9.155,20,9h0a10.579,10.579,0,0,0-9,8h0c-7.406-2.945-11.449-8.457-12-15-.239-2.854.179-2.88,1-2" transform="translate(393.23 293.795)"/>
      <path id="路径_4181" data-name="路径 4181" class="cls-40" d="M328,218.316c-5.379,5.3-11.631,9.155-20,9a10.641,10.641,0,0,1,10,8c6.733-3.048,11.479-8.814,12-15,.239-2.854-1.179-2.88-2-2" transform="translate(414.599 293.795)"/>
      <path id="路径_4182" data-name="路径 4182" class="cls-39" d="M296.742,225.838c5.581-2.312,10.8-1.9,12,1s-2.419,7.688-8,10-10.8.894-12-2,2.419-6.688,8-9" transform="translate(388.853 302.273)"/>
      <path id="路径_4183" data-name="路径 4183" class="cls-39" d="M324.343,226.127c-5.581-2.312-10.8-1.894-12,1s2.419,6.688,8,9,10.8,1.9,12-1-2.419-6.688-8-9" transform="translate(420.251 301.985)"/>
      <path id="路径_4184" data-name="路径 4184" class="cls-10" d="M308.149,222.113h14a9.732,9.732,0,0,1,10,10v33c0,5.743-4.257,11-10,11h-14a11.456,11.456,0,0,1-11-11v-33c0-5.743,5.258-10,11-10" transform="translate(400.446 298.999)"/>
      <path id="路径_4185" data-name="路径 4185" class="cls-4" d="M308.147,222.113h7a9.732,9.732,0,0,1,10,10v33c0,5.743-4.257,11-10,11h-7a11.456,11.456,0,0,1-11-11v-33c0-5.743,5.258-10,11-10" transform="translate(400.447 298.999)"/>
      <path id="路径_4186" data-name="路径 4186" class="cls-23" d="M302.333,229.566c1.373,0,3,.627,3,2a3.454,3.454,0,0,1-3,3c-1.373,0-2-1.627-2-3a1.738,1.738,0,0,1,2-2" transform="translate(404.261 308.545)"/>
      <path id="路径_4187" data-name="路径 4187" class="cls-23" d="M309.672,229.566c1.373,0,3,.627,3,2a3.454,3.454,0,0,1-3,3c-1.373,0-2-1.627-2-3a1.738,1.738,0,0,1,2-2" transform="translate(413.923 308.545)"/>
      <path id="路径_4188" data-name="路径 4188" class="cls-41" d="M300.671,238.458h33c2.861,0,6,3.142,6,6v15c0,2.861-3.139,5-6,5h-33a4.88,4.88,0,0,1-5-5v-15c0-2.858,2.142-6,5-6" transform="translate(397.923 321.653)"/>
      <path id="路径_4189" data-name="路径 4189" class="cls-42" d="M300.671,238.458h27c2.861,0,5,3.142,5,6v9a4.88,4.88,0,0,1-5,5h-27a4.881,4.881,0,0,1-5-5v-9c0-2.858,2.142-6,5-6" transform="translate(397.923 321.653)"/>
      <path id="路径_4190" data-name="路径 4190" class="cls-43" d="M299.705,241.153a3,3,0,1,1-3,3,3.122,3.122,0,0,1,3-3" transform="translate(399.889 324.958)"/>
      <path id="路径_4191" data-name="路径 4191" class="cls-43" d="M312.7,241.153a3,3,0,0,1,0,6c-1.565,0-2-1.432-2-3s.435-3,2-3" transform="translate(417.892 324.958)"/>
      <path id="路径_4192" data-name="路径 4192" class="cls-4" d="M505.453,251.591v74h-10v-40c-1.087.3-1.824,1-3,1h-62v39h-10v-39h-6a13.015,13.015,0,0,1-13-13v-44a13.015,13.015,0,0,1,13-13h78c6.238,0,10.742,4.124,12,10,.094-.012.9,0,1,0a9.054,9.054,0,0,1,7,3c1.988,1.988,4,4.966,4,8v46c1.755,1.692,3,5.241,3,9,0,5.5-4.855,13-6,13s-6-7.5-6-13c0-3.759,1.247-7.308,3-9v-46a6.11,6.11,0,0,0-2-4c-1-1-1.475-1-3-1Z" transform="translate(540.142 291.52)"/>
      <rect id="矩形_790" data-name="矩形 790" class="cls-44" width="10" height="39" transform="translate(1015.595 578.112)"/>
      <path id="路径_4193" data-name="路径 4193" class="cls-39" d="M401.453,240.938a11.872,11.872,0,0,0,9,12v40h-9Z" transform="translate(540.142 324.173)"/>
      <path id="路径_4194" data-name="路径 4194" class="cls-41" d="M460.512,246.461a16.612,16.612,0,0,1-6,13l4,7c.777,1.291.288,2.221-1,3s-3.223,1.291-4,0l-4-7a18.979,18.979,0,0,1-4,1v8c0,1.509-1.493,2-3,2s-2-.491-2-2v-8a18.871,18.871,0,0,1-4-1l-4,7c-.777,1.291-2.709.777-4,0s-1.777-1.709-1-3l4-7a16.612,16.612,0,0,1-6-13Z" transform="translate(573.083 331.651)"/>
      <path id="路径_4195" data-name="路径 4195" class="cls-23" d="M427.282,233.625c9.375,0,21.248,4.362,19,16-1.274,6.59-6.049,11.44-12,14h-11v3c-.9.077-2.167,0-3,0a15.562,15.562,0,0,1-7-2v-1h-2a14.2,14.2,0,0,1-5-14c1.746-9.047,11.625-16,21-16" transform="translate(547.312 314.487)"/>
      <path id="路径_4196" data-name="路径 4196" class="cls-23" d="M447.549,236.372c4.823,0,11.151,1.536,15,5v16a22.75,22.75,0,0,1-10,5v-3c-1.087.3-1.822,1-3,1h-12a13.436,13.436,0,0,1-5-11c.221-7.482,7.246-13,15-13" transform="translate(583.046 317.74)"/>
      <path id="路径_4197" data-name="路径 4197" class="cls-23" d="M445.587,216.591h0c-1.361,8.012-9.149,11-14,11s-8.061-4.772-7-11h21Z" transform="translate(572.008 291.52)"/>
      <path id="路径_4198" data-name="路径 4198" class="cls-23" d="M438.162,229.482c4.928,0,12.183,1.884,12,8s-8.072,9-13,9-8.141-4.243-8-9,4.072-8,9-8" transform="translate(577.432 308.63)"/>
      <path id="路径_4199" data-name="路径 4199" class="cls-40" d="M389.744,218.316c5.377,5.3,11.634,9.155,20,9h0a10.577,10.577,0,0,0-9,8h0c-7.4-2.945-11.449-8.457-12-15-.239-2.854.176-2.88,1-2" transform="translate(522.851 293.795)"/>
      <path id="路径_4200" data-name="路径 4200" class="cls-40" d="M424.373,218.316c-5.377,5.3-11.631,9.155-20,9a10.641,10.641,0,0,1,10,8,18.057,18.057,0,0,0,11-15c.239-2.854-.179-2.88-1-2" transform="translate(544.221 293.795)"/>
      <path id="路径_4201" data-name="路径 4201" class="cls-39" d="M393.12,225.838c5.581-2.312,10.8-1.9,12,1s-2.417,7.688-8,10-10.8.894-12-2,2.417-6.688,8-9" transform="translate(518.474 302.273)"/>
      <path id="路径_4202" data-name="路径 4202" class="cls-39" d="M420.722,226.127c-5.581-2.312-10.8-1.894-12,1s2.419,6.688,8,9,10.8,1.9,12-1-2.419-6.688-8-9" transform="translate(549.873 301.985)"/>
      <path id="路径_4203" data-name="路径 4203" class="cls-10" d="M403.525,222.113h15a9.732,9.732,0,0,1,10,10v33c0,5.743-4.257,11-10,11h-15c-5.742,0-10-5.257-10-11v-33a9.732,9.732,0,0,1,10-10" transform="translate(530.069 298.999)"/>
      <path id="路径_4204" data-name="路径 4204" class="cls-4" d="M403.525,222.113h8a9.732,9.732,0,0,1,10,10v33c0,5.743-4.257,11-10,11h-8c-5.742,0-10-5.257-10-11v-33a9.732,9.732,0,0,1,10-10" transform="translate(530.069 298.999)"/>
      <path id="路径_4205" data-name="路径 4205" class="cls-23" d="M398.711,229.566c1.373,0,3,.627,3,2a3.454,3.454,0,0,1-3,3c-1.373,0-2-1.627-2-3a1.738,1.738,0,0,1,2-2" transform="translate(533.883 308.545)"/>
      <path id="路径_4206" data-name="路径 4206" class="cls-23" d="M406.049,229.566c1.373,0,3,.627,3,2a3.454,3.454,0,0,1-3,3c-1.373,0-2-1.627-2-3a1.738,1.738,0,0,1,2-2" transform="translate(543.545 308.545)"/>
      <path id="路径_4207" data-name="路径 4207" class="cls-41" d="M397.049,238.458h33c2.861,0,6,3.142,6,6v15c0,2.861-3.139,5-6,5h-33a4.88,4.88,0,0,1-5-5v-15c0-2.858,2.142-6,5-6" transform="translate(527.545 321.653)"/>
      <path id="路径_4208" data-name="路径 4208" class="cls-42" d="M397.049,238.458h27c2.861,0,5,3.142,5,6v9a4.881,4.881,0,0,1-5,5h-27a4.881,4.881,0,0,1-5-5v-9c0-2.858,2.139-6,5-6" transform="translate(527.545 321.653)"/>
      <path id="路径_4209" data-name="路径 4209" class="cls-43" d="M396.083,241.153a3,3,0,1,1-3,3,3.122,3.122,0,0,1,3-3" transform="translate(529.512 324.958)"/>
      <path id="路径_4210" data-name="路径 4210" class="cls-43" d="M409.08,241.153a3,3,0,1,1-3,3,3.122,3.122,0,0,1,3-3" transform="translate(547.514 324.958)"/>
    </g>
  </g>
</svg>
