<svg xmlns="http://www.w3.org/2000/svg" xmlns:xlink="http://www.w3.org/1999/xlink" width="750" height="384" viewBox="0 0 750 384">
  <defs>
    <clipPath id="clip-path">
      <rect id="矩形_883" data-name="矩形 883" width="750" height="384" transform="translate(0 101)" fill="#fff"/>
    </clipPath>
    <linearGradient id="linear-gradient" x1="0.509" y1="0.997" x2="0.501" y2="0.001" gradientUnits="objectBoundingBox">
      <stop offset="0" stop-color="#409ec3"/>
      <stop offset="1" stop-color="#085b7b"/>
    </linearGradient>
    <filter id="路径_4711" x="-250.564" y="-662.949" width="1265.13" height="1267.116" filterUnits="userSpaceOnUse">
      <feOffset dx="10" dy="20" input="SourceAlpha"/>
      <feGaussianBlur stdDeviation="25" result="blur"/>
      <feFlood flood-color="#197ba0" flood-opacity="0.2"/>
      <feComposite operator="in" in2="blur"/>
      <feComposite in="SourceGraphic"/>
    </filter>
    <filter id="路径_4712" x="126.809" y="-112.112" width="510.38" height="510.38" filterUnits="userSpaceOnUse">
      <feOffset dx="10" dy="20" input="SourceAlpha"/>
      <feGaussianBlur stdDeviation="25" result="blur-2"/>
      <feFlood flood-color="#96ddf8" flood-opacity="0.561"/>
      <feComposite operator="in" in2="blur-2"/>
      <feComposite in="SourceGraphic"/>
    </filter>
    <linearGradient id="linear-gradient-3" x1="0.509" y1="0.997" x2="0.501" y2="0.001" gradientUnits="objectBoundingBox">
      <stop offset="0" stop-color="#409ec3"/>
      <stop offset="1" stop-color="#2584a9"/>
    </linearGradient>
    <filter id="路径_4713" x="526.682" y="-54.628" width="205.474" height="205.474" filterUnits="userSpaceOnUse">
      <feOffset dx="10" dy="20" input="SourceAlpha"/>
      <feGaussianBlur stdDeviation="25" result="blur-3"/>
      <feFlood flood-color="#96ddf8" flood-opacity="0.561"/>
      <feComposite operator="in" in2="blur-3"/>
      <feComposite in="SourceGraphic"/>
    </filter>
    <filter id="路径_4714" x="516.187" y="-18.004" width="205.474" height="205.474" filterUnits="userSpaceOnUse">
      <feOffset dx="10" dy="20" input="SourceAlpha"/>
      <feGaussianBlur stdDeviation="25" result="blur-4"/>
      <feFlood flood-color="#96ddf8" flood-opacity="0.561"/>
      <feComposite operator="in" in2="blur-4"/>
      <feComposite in="SourceGraphic"/>
    </filter>
    <linearGradient id="linear-gradient-5" x1="0.509" y1="0.997" x2="0.501" y2="0.001" gradientUnits="objectBoundingBox">
      <stop offset="0" stop-color="#409ec3"/>
      <stop offset="1" stop-color="#2b95be"/>
    </linearGradient>
    <filter id="路径_4715" x="555.707" y="-27.813" width="205.474" height="205.474" filterUnits="userSpaceOnUse">
      <feOffset dx="10" dy="20" input="SourceAlpha"/>
      <feGaussianBlur stdDeviation="25" result="blur-5"/>
      <feFlood flood-color="#96ddf8" flood-opacity="0.561"/>
      <feComposite operator="in" in2="blur-5"/>
      <feComposite in="SourceGraphic"/>
    </filter>
    <linearGradient id="linear-gradient-6" x1="0.509" y1="0.997" x2="0.501" y2="0.001" gradientUnits="objectBoundingBox">
      <stop offset="0" stop-color="#409ec3"/>
      <stop offset="1" stop-color="#2a84a7"/>
    </linearGradient>
    <filter id="路径_4716" x="362.277" y="152.79" width="205.474" height="205.474" filterUnits="userSpaceOnUse">
      <feOffset dx="10" dy="20" input="SourceAlpha"/>
      <feGaussianBlur stdDeviation="25" result="blur-6"/>
      <feFlood flood-color="#96ddf8" flood-opacity="0.561"/>
      <feComposite operator="in" in2="blur-6"/>
      <feComposite in="SourceGraphic"/>
    </filter>
    <filter id="路径_4717" x="351.783" y="189.413" width="205.474" height="205.474" filterUnits="userSpaceOnUse">
      <feOffset dx="10" dy="20" input="SourceAlpha"/>
      <feGaussianBlur stdDeviation="25" result="blur-7"/>
      <feFlood flood-color="#96ddf8" flood-opacity="0.561"/>
      <feComposite operator="in" in2="blur-7"/>
      <feComposite in="SourceGraphic"/>
    </filter>
    <filter id="路径_4718" x="391.305" y="179.605" width="205.474" height="205.474" filterUnits="userSpaceOnUse">
      <feOffset dx="10" dy="20" input="SourceAlpha"/>
      <feGaussianBlur stdDeviation="25" result="blur-8"/>
      <feFlood flood-color="#96ddf8" flood-opacity="0.561"/>
      <feComposite operator="in" in2="blur-8"/>
      <feComposite in="SourceGraphic"/>
    </filter>
    <filter id="路径_4719" x="376.456" y="8.811" width="205.474" height="205.474" filterUnits="userSpaceOnUse">
      <feOffset dx="10" dy="20" input="SourceAlpha"/>
      <feGaussianBlur stdDeviation="25" result="blur-9"/>
      <feFlood flood-color="#96ddf8" flood-opacity="0.561"/>
      <feComposite operator="in" in2="blur-9"/>
      <feComposite in="SourceGraphic"/>
    </filter>
    <filter id="路径_4720" x="365.961" y="45.434" width="205.474" height="205.474" filterUnits="userSpaceOnUse">
      <feOffset dx="10" dy="20" input="SourceAlpha"/>
      <feGaussianBlur stdDeviation="25" result="blur-10"/>
      <feFlood flood-color="#96ddf8" flood-opacity="0.561"/>
      <feComposite operator="in" in2="blur-10"/>
      <feComposite in="SourceGraphic"/>
    </filter>
    <filter id="路径_4721" x="405.481" y="35.625" width="205.474" height="205.474" filterUnits="userSpaceOnUse">
      <feOffset dx="10" dy="20" input="SourceAlpha"/>
      <feGaussianBlur stdDeviation="25" result="blur-11"/>
      <feFlood flood-color="#96ddf8" flood-opacity="0.561"/>
      <feComposite operator="in" in2="blur-11"/>
      <feComposite in="SourceGraphic"/>
    </filter>
    <filter id="路径_4722" x="124.112" y="118.052" width="205.474" height="205.474" filterUnits="userSpaceOnUse">
      <feOffset dx="10" dy="20" input="SourceAlpha"/>
      <feGaussianBlur stdDeviation="25" result="blur-12"/>
      <feFlood flood-color="#96ddf8" flood-opacity="0.561"/>
      <feComposite operator="in" in2="blur-12"/>
      <feComposite in="SourceGraphic"/>
    </filter>
    <filter id="路径_4723" x="113.618" y="154.675" width="205.474" height="205.474" filterUnits="userSpaceOnUse">
      <feOffset dx="10" dy="20" input="SourceAlpha"/>
      <feGaussianBlur stdDeviation="25" result="blur-13"/>
      <feFlood flood-color="#96ddf8" flood-opacity="0.561"/>
      <feComposite operator="in" in2="blur-13"/>
      <feComposite in="SourceGraphic"/>
    </filter>
    <filter id="路径_4724" x="153.139" y="144.867" width="205.474" height="205.474" filterUnits="userSpaceOnUse">
      <feOffset dx="10" dy="20" input="SourceAlpha"/>
      <feGaussianBlur stdDeviation="25" result="blur-14"/>
      <feFlood flood-color="#96ddf8" flood-opacity="0.561"/>
      <feComposite operator="in" in2="blur-14"/>
      <feComposite in="SourceGraphic"/>
    </filter>
  </defs>
  <g id="蒙版组_10" data-name="蒙版组 10" transform="translate(0 -101)" clip-path="url(#clip-path)">
    <g id="组_407" data-name="组 407" transform="translate(-208.785 -486.288)">
      <g transform="matrix(1, 0, 0, 1, 208.79, 587.29)" filter="url(#路径_4711)">
        <path id="路径_4711-2" data-name="路径 4711" d="M593.339,23.516c20.578.816,40.03,12.571,51.036,30.844l190.759,316.7c11.026,18.306,11.9,40.367,2.287,57.855L671.137,731.472c-9.594,17.456-28.176,27.7-48.755,26.889L265.2,744.2c-20.578-.815-40.03-12.571-51.036-30.844L23.4,396.657c-11.026-18.306-11.9-40.367-2.287-57.855L187.4,36.249C197,18.792,215.578,8.544,236.156,9.36Z" transform="matrix(0.69, -0.72, 0.72, 0.69, -202.32, -7.25)" fill="url(#linear-gradient)"/>
      </g>
      <g transform="matrix(1, 0, 0, 1, 208.79, 587.29)" filter="url(#路径_4712)">
        <path id="路径_4712-2" data-name="路径 4712" d="M197.193,7.809a10.572,10.572,0,0,1,8.516,5.132L272.5,123.471a9.649,9.649,0,0,1,.382,9.634L214.65,238.683a8.766,8.766,0,0,1-8.136,4.472L81.453,238.2a10.572,10.572,0,0,1-8.516-5.132L6.144,122.541a9.649,9.649,0,0,1-.382-9.634L64,7.329a8.766,8.766,0,0,1,8.136-4.472Z" transform="translate(186.5 134.62) rotate(-45)" opacity="0.1" fill="url(#linear-gradient)"/>
      </g>
      <g id="组_405" data-name="组 405" transform="translate(788.684 588.583)" opacity="0.58">
        <g transform="matrix(1, 0, 0, 1, -579.9, -1.29)" filter="url(#路径_4713)">
          <path id="路径_4713-2" data-name="路径 4713" d="M28.942,1.146A4.229,4.229,0,0,1,32.349,3.2L41.284,18a3.86,3.86,0,0,1,.153,3.851L33.647,35.982a3.506,3.506,0,0,1-3.255,1.79L13.66,37.11a4.229,4.229,0,0,1-3.407-2.054l-8.935-14.8a3.86,3.86,0,0,1-.153-3.851L8.955,2.274A3.506,3.506,0,0,1,12.21.484Z" transform="translate(590.83 29.65) rotate(-45)" opacity="0.6" fill="url(#linear-gradient-3)"/>
        </g>
        <g transform="matrix(1, 0, 0, 1, -579.9, -1.29)" filter="url(#路径_4714)">
          <path id="路径_4714-2" data-name="路径 4714" d="M28.942,1.146A4.229,4.229,0,0,1,32.349,3.2L41.284,18a3.86,3.86,0,0,1,.153,3.851L33.647,35.982a3.506,3.506,0,0,1-3.255,1.79L13.66,37.11a4.229,4.229,0,0,1-3.407-2.054l-8.935-14.8a3.86,3.86,0,0,1-.153-3.851L8.955,2.274A3.506,3.506,0,0,1,12.21.484Z" transform="translate(580.34 66.27) rotate(-45)" opacity="0.6" fill="url(#linear-gradient-3)"/>
        </g>
        <g transform="matrix(1, 0, 0, 1, -579.9, -1.29)" filter="url(#路径_4715)">
          <path id="路径_4715-2" data-name="路径 4715" d="M28.942,1.146A4.229,4.229,0,0,1,32.349,3.2L41.284,18a3.86,3.86,0,0,1,.153,3.851L33.647,35.982a3.506,3.506,0,0,1-3.255,1.79L13.66,37.11a4.229,4.229,0,0,1-3.407-2.054l-8.935-14.8a3.86,3.86,0,0,1-.153-3.851L8.955,2.274A3.506,3.506,0,0,1,12.21.484Z" transform="translate(619.86 56.46) rotate(-45)" opacity="0.65" fill="url(#linear-gradient-5)"/>
        </g>
      </g>
      <g id="组_404" data-name="组 404" transform="translate(624.28 796.001)" opacity="0.58">
        <g transform="matrix(1, 0, 0, 1, -415.49, -208.71)" filter="url(#路径_4716)">
          <path id="路径_4716-2" data-name="路径 4716" d="M28.942,1.146A4.229,4.229,0,0,1,32.349,3.2L41.284,18a3.86,3.86,0,0,1,.153,3.851L33.647,35.982a3.506,3.506,0,0,1-3.255,1.79L13.66,37.11a4.229,4.229,0,0,1-3.407-2.054l-8.935-14.8a3.86,3.86,0,0,1-.153-3.851L8.955,2.274A3.506,3.506,0,0,1,12.21.484Z" transform="translate(426.43 237.06) rotate(-45)" opacity="0.58" fill="url(#linear-gradient-6)"/>
        </g>
        <g transform="matrix(1, 0, 0, 1, -415.49, -208.71)" filter="url(#路径_4717)">
          <path id="路径_4717-2" data-name="路径 4717" d="M28.942,1.146A4.229,4.229,0,0,1,32.349,3.2L41.284,18a3.86,3.86,0,0,1,.153,3.851L33.647,35.982a3.506,3.506,0,0,1-3.255,1.79L13.66,37.11a4.229,4.229,0,0,1-3.407-2.054l-8.935-14.8a3.86,3.86,0,0,1-.153-3.851L8.955,2.274A3.506,3.506,0,0,1,12.21.484Z" transform="translate(415.93 273.69) rotate(-45)" opacity="0.58" fill="url(#linear-gradient-6)"/>
        </g>
        <g transform="matrix(1, 0, 0, 1, -415.49, -208.71)" filter="url(#路径_4718)">
          <path id="路径_4718-2" data-name="路径 4718" d="M28.942,1.146A4.229,4.229,0,0,1,32.349,3.2L41.284,18a3.86,3.86,0,0,1,.153,3.851L33.647,35.982a3.506,3.506,0,0,1-3.255,1.79L13.66,37.11a4.229,4.229,0,0,1-3.407-2.054l-8.935-14.8a3.86,3.86,0,0,1-.153-3.851L8.955,2.274A3.506,3.506,0,0,1,12.21.484Z" transform="translate(455.45 263.88) rotate(-45)" opacity="0.58" fill="url(#linear-gradient-6)"/>
        </g>
      </g>
      <g id="组_406" data-name="组 406" transform="translate(638.457 652.021)" opacity="0.35">
        <g transform="matrix(1, 0, 0, 1, -429.67, -64.73)" filter="url(#路径_4719)">
          <g id="路径_4719-2" data-name="路径 4719" transform="translate(440.61 93.08) rotate(-45)" fill="none" opacity="0.85">
            <path d="M28.942,1.146A4.229,4.229,0,0,1,32.349,3.2L41.284,18a3.86,3.86,0,0,1,.153,3.851L33.647,35.982a3.506,3.506,0,0,1-3.255,1.79L13.66,37.11a4.229,4.229,0,0,1-3.407-2.054l-8.935-14.8a3.86,3.86,0,0,1-.153-3.851L8.955,2.274A3.506,3.506,0,0,1,12.21.484Z" stroke="none"/>
            <path d="M 12.0569896697998 2.480491638183594 C 11.472900390625 2.480491638183594 10.96795082092285 2.764019012451172 10.70623970031738 3.238929748535156 L 2.917121887207031 17.37336921691895 C 2.621219635009766 17.91032981872559 2.664501190185547 18.6199893951416 3.03009033203125 19.22542953491211 L 11.96492958068848 34.02215957641602 C 12.35379981994629 34.66616058349609 13.03367042541504 35.08356857299805 13.73923110961914 35.11151885986328 L 30.47129058837891 35.77413177490234 C 31.08452224731445 35.79853820800781 31.62294387817383 35.51194381713867 31.89559173583984 35.01716995239258 L 39.68471908569336 20.88273048400879 C 39.98062133789062 20.34576988220215 39.93733978271484 19.63610076904297 39.57176208496094 19.03067016601562 L 30.63690948486328 4.233940124511719 C 30.24803924560547 3.589939117431641 29.56817054748535 3.172531127929688 28.86260986328125 3.144580841064453 L 12.13055992126465 2.481960296630859 C 12.1059398651123 2.480979919433594 12.0814208984375 2.480491638183594 12.0569896697998 2.480491638183594 M 12.05699157714844 0.4804916381835938 C 12.10766792297363 0.4804916381835938 12.15854263305664 0.4814987182617188 12.20960998535156 0.4835205078125 L 28.94174957275391 1.146148681640625 C 30.31565093994141 1.2005615234375 31.61429977416992 1.983421325683594 32.34899139404297 3.200111389160156 L 41.28384017944336 17.99684906005859 C 42.01969146728516 19.21547889709473 42.07785034179688 20.68393898010254 41.43635177612305 21.84802055358887 L 33.64723205566406 35.98244857788086 C 33.00675964355469 37.14469146728516 31.76612854003906 37.82697677612305 30.39224052429199 37.7725715637207 L 13.66009140014648 37.10995101928711 C 12.28619003295898 37.05553817749023 10.98754119873047 36.27267837524414 10.25284957885742 35.05598068237305 L 1.318012237548828 20.25925064086914 C 0.5821495056152344 19.04062080383301 0.5239906311035156 17.5721607208252 1.165489196777344 16.40807914733887 L 8.954601287841797 2.273651123046875 C 9.571273803710938 1.154621124267578 10.74431991577148 0.4804916381835938 12.05699157714844 0.4804916381835938 Z" stroke="none" fill="#3d9fc5"/>
          </g>
        </g>
        <g transform="matrix(1, 0, 0, 1, -429.67, -64.73)" filter="url(#路径_4720)">
          <g id="路径_4720-2" data-name="路径 4720" transform="translate(430.11 129.71) rotate(-45)" fill="none" opacity="0.85">
            <path d="M28.942,1.146A4.229,4.229,0,0,1,32.349,3.2L41.284,18a3.86,3.86,0,0,1,.153,3.851L33.647,35.982a3.506,3.506,0,0,1-3.255,1.79L13.66,37.11a4.229,4.229,0,0,1-3.407-2.054l-8.935-14.8a3.86,3.86,0,0,1-.153-3.851L8.955,2.274A3.506,3.506,0,0,1,12.21.484Z" stroke="none"/>
            <path d="M 12.0569896697998 2.480491638183594 C 11.472900390625 2.480491638183594 10.96795082092285 2.764019012451172 10.70623970031738 3.238929748535156 L 2.917121887207031 17.37336921691895 C 2.621219635009766 17.91032981872559 2.664501190185547 18.6199893951416 3.03009033203125 19.22542953491211 L 11.96492958068848 34.02215957641602 C 12.35379981994629 34.66616058349609 13.03367042541504 35.08356857299805 13.73923110961914 35.11151885986328 L 30.47129058837891 35.77413177490234 C 31.08452224731445 35.79853820800781 31.62294387817383 35.51194381713867 31.89559173583984 35.01716995239258 L 39.68471908569336 20.88273048400879 C 39.98062133789062 20.34576988220215 39.93733978271484 19.63610076904297 39.57176208496094 19.03067016601562 L 30.63690948486328 4.233940124511719 C 30.24803924560547 3.589939117431641 29.56817054748535 3.172531127929688 28.86260986328125 3.144580841064453 L 12.13055992126465 2.481960296630859 C 12.1059398651123 2.480979919433594 12.0814208984375 2.480491638183594 12.0569896697998 2.480491638183594 M 12.05699157714844 0.4804916381835938 C 12.10766792297363 0.4804916381835938 12.15854263305664 0.4814987182617188 12.20960998535156 0.4835205078125 L 28.94174957275391 1.146148681640625 C 30.31565093994141 1.2005615234375 31.61429977416992 1.983421325683594 32.34899139404297 3.200111389160156 L 41.28384017944336 17.99684906005859 C 42.01969146728516 19.21547889709473 42.07785034179688 20.68393898010254 41.43635177612305 21.84802055358887 L 33.64723205566406 35.98244857788086 C 33.00675964355469 37.14469146728516 31.76612854003906 37.82697677612305 30.39224052429199 37.7725715637207 L 13.66009140014648 37.10995101928711 C 12.28619003295898 37.05553817749023 10.98754119873047 36.27267837524414 10.25284957885742 35.05598068237305 L 1.318012237548828 20.25925064086914 C 0.5821495056152344 19.04062080383301 0.5239906311035156 17.5721607208252 1.165489196777344 16.40807914733887 L 8.954601287841797 2.273651123046875 C 9.571273803710938 1.154621124267578 10.74431991577148 0.4804916381835938 12.05699157714844 0.4804916381835938 Z" stroke="none" fill="#3d9fc5"/>
          </g>
        </g>
        <g transform="matrix(1, 0, 0, 1, -429.67, -64.73)" filter="url(#路径_4721)">
          <g id="路径_4721-2" data-name="路径 4721" transform="translate(469.63 119.9) rotate(-45)" fill="none" opacity="0.85">
            <path d="M28.942,1.146A4.229,4.229,0,0,1,32.349,3.2L41.284,18a3.86,3.86,0,0,1,.153,3.851L33.647,35.982a3.506,3.506,0,0,1-3.255,1.79L13.66,37.11a4.229,4.229,0,0,1-3.407-2.054l-8.935-14.8a3.86,3.86,0,0,1-.153-3.851L8.955,2.274A3.506,3.506,0,0,1,12.21.484Z" stroke="none"/>
            <path d="M 12.0569896697998 2.480491638183594 C 11.472900390625 2.480491638183594 10.96795082092285 2.764019012451172 10.70623970031738 3.238929748535156 L 2.917121887207031 17.37336921691895 C 2.621219635009766 17.91032981872559 2.664501190185547 18.6199893951416 3.03009033203125 19.22542953491211 L 11.96492958068848 34.02215957641602 C 12.35379981994629 34.66616058349609 13.03367042541504 35.08356857299805 13.73923110961914 35.11151885986328 L 30.47129058837891 35.77413177490234 C 31.08452224731445 35.79853820800781 31.62294387817383 35.51194381713867 31.89559173583984 35.01716995239258 L 39.68471908569336 20.88273048400879 C 39.98062133789062 20.34576988220215 39.93733978271484 19.63610076904297 39.57176208496094 19.03067016601562 L 30.63690948486328 4.233940124511719 C 30.24803924560547 3.589939117431641 29.56817054748535 3.172531127929688 28.86260986328125 3.144580841064453 L 12.13055992126465 2.481960296630859 C 12.1059398651123 2.480979919433594 12.0814208984375 2.480491638183594 12.0569896697998 2.480491638183594 M 12.05699157714844 0.4804916381835938 C 12.10766792297363 0.4804916381835938 12.15854263305664 0.4814987182617188 12.20960998535156 0.4835205078125 L 28.94174957275391 1.146148681640625 C 30.31565093994141 1.2005615234375 31.61429977416992 1.983421325683594 32.34899139404297 3.200111389160156 L 41.28384017944336 17.99684906005859 C 42.01969146728516 19.21547889709473 42.07785034179688 20.68393898010254 41.43635177612305 21.84802055358887 L 33.64723205566406 35.98244857788086 C 33.00675964355469 37.14469146728516 31.76612854003906 37.82697677612305 30.39224052429199 37.7725715637207 L 13.66009140014648 37.10995101928711 C 12.28619003295898 37.05553817749023 10.98754119873047 36.27267837524414 10.25284957885742 35.05598068237305 L 1.318012237548828 20.25925064086914 C 0.5821495056152344 19.04062080383301 0.5239906311035156 17.5721607208252 1.165489196777344 16.40807914733887 L 8.954601287841797 2.273651123046875 C 9.571273803710938 1.154621124267578 10.74431991577148 0.4804916381835938 12.05699157714844 0.4804916381835938 Z" stroke="none" fill="#3d9fc5"/>
          </g>
        </g>
      </g>
      <g id="组_403" data-name="组 403" transform="translate(386.114 761.263)" opacity="0.43">
        <g transform="matrix(1, 0, 0, 1, -177.33, -173.97)" filter="url(#路径_4722)">
          <g id="路径_4722-2" data-name="路径 4722" transform="translate(188.26 202.33) rotate(-45)" fill="none" opacity="0.85">
            <path d="M28.942,1.146A4.229,4.229,0,0,1,32.349,3.2L41.284,18a3.86,3.86,0,0,1,.153,3.851L33.647,35.982a3.506,3.506,0,0,1-3.255,1.79L13.66,37.11a4.229,4.229,0,0,1-3.407-2.054l-8.935-14.8a3.86,3.86,0,0,1-.153-3.851L8.955,2.274A3.506,3.506,0,0,1,12.21.484Z" stroke="none"/>
            <path d="M 12.0569896697998 2.480491638183594 C 11.472900390625 2.480491638183594 10.96795082092285 2.764019012451172 10.70623970031738 3.238929748535156 L 2.917121887207031 17.37336921691895 C 2.621219635009766 17.91032981872559 2.664501190185547 18.6199893951416 3.03009033203125 19.22542953491211 L 11.96492958068848 34.02215957641602 C 12.35379981994629 34.66616058349609 13.03367042541504 35.08356857299805 13.73923110961914 35.11151885986328 L 30.47129058837891 35.77413177490234 C 31.08452224731445 35.79853820800781 31.62294387817383 35.51194381713867 31.89559173583984 35.01716995239258 L 39.68471908569336 20.88273048400879 C 39.98062133789062 20.34576988220215 39.93733978271484 19.63610076904297 39.57176208496094 19.03067016601562 L 30.63690948486328 4.233940124511719 C 30.24803924560547 3.589939117431641 29.56817054748535 3.172531127929688 28.86260986328125 3.144580841064453 L 12.13055992126465 2.481960296630859 C 12.1059398651123 2.480979919433594 12.0814208984375 2.480491638183594 12.0569896697998 2.480491638183594 M 12.05699157714844 0.4804916381835938 C 12.10766792297363 0.4804916381835938 12.15854263305664 0.4814987182617188 12.20960998535156 0.4835205078125 L 28.94174957275391 1.146148681640625 C 30.31565093994141 1.2005615234375 31.61429977416992 1.983421325683594 32.34899139404297 3.200111389160156 L 41.28384017944336 17.99684906005859 C 42.01969146728516 19.21547889709473 42.07785034179688 20.68393898010254 41.43635177612305 21.84802055358887 L 33.64723205566406 35.98244857788086 C 33.00675964355469 37.14469146728516 31.76612854003906 37.82697677612305 30.39224052429199 37.7725715637207 L 13.66009140014648 37.10995101928711 C 12.28619003295898 37.05553817749023 10.98754119873047 36.27267837524414 10.25284957885742 35.05598068237305 L 1.318012237548828 20.25925064086914 C 0.5821495056152344 19.04062080383301 0.5239906311035156 17.5721607208252 1.165489196777344 16.40807914733887 L 8.954601287841797 2.273651123046875 C 9.571273803710938 1.154621124267578 10.74431991577148 0.4804916381835938 12.05699157714844 0.4804916381835938 Z" stroke="none" fill="#3597be"/>
          </g>
        </g>
        <g transform="matrix(1, 0, 0, 1, -177.33, -173.97)" filter="url(#路径_4723)">
          <g id="路径_4723-2" data-name="路径 4723" transform="translate(177.77 238.95) rotate(-45)" fill="none" opacity="0.85">
            <path d="M28.942,1.146A4.229,4.229,0,0,1,32.349,3.2L41.284,18a3.86,3.86,0,0,1,.153,3.851L33.647,35.982a3.506,3.506,0,0,1-3.255,1.79L13.66,37.11a4.229,4.229,0,0,1-3.407-2.054l-8.935-14.8a3.86,3.86,0,0,1-.153-3.851L8.955,2.274A3.506,3.506,0,0,1,12.21.484Z" stroke="none"/>
            <path d="M 12.0569896697998 2.480491638183594 C 11.472900390625 2.480491638183594 10.96795082092285 2.764019012451172 10.70623970031738 3.238929748535156 L 2.917121887207031 17.37336921691895 C 2.621219635009766 17.91032981872559 2.664501190185547 18.6199893951416 3.03009033203125 19.22542953491211 L 11.96492958068848 34.02215957641602 C 12.35379981994629 34.66616058349609 13.03367042541504 35.08356857299805 13.73923110961914 35.11151885986328 L 30.47129058837891 35.77413177490234 C 31.08452224731445 35.79853820800781 31.62294387817383 35.51194381713867 31.89559173583984 35.01716995239258 L 39.68471908569336 20.88273048400879 C 39.98062133789062 20.34576988220215 39.93733978271484 19.63610076904297 39.57176208496094 19.03067016601562 L 30.63690948486328 4.233940124511719 C 30.24803924560547 3.589939117431641 29.56817054748535 3.172531127929688 28.86260986328125 3.144580841064453 L 12.13055992126465 2.481960296630859 C 12.1059398651123 2.480979919433594 12.0814208984375 2.480491638183594 12.0569896697998 2.480491638183594 M 12.05699157714844 0.4804916381835938 C 12.10766792297363 0.4804916381835938 12.15854263305664 0.4814987182617188 12.20960998535156 0.4835205078125 L 28.94174957275391 1.146148681640625 C 30.31565093994141 1.2005615234375 31.61429977416992 1.983421325683594 32.34899139404297 3.200111389160156 L 41.28384017944336 17.99684906005859 C 42.01969146728516 19.21547889709473 42.07785034179688 20.68393898010254 41.43635177612305 21.84802055358887 L 33.64723205566406 35.98244857788086 C 33.00675964355469 37.14469146728516 31.76612854003906 37.82697677612305 30.39224052429199 37.7725715637207 L 13.66009140014648 37.10995101928711 C 12.28619003295898 37.05553817749023 10.98754119873047 36.27267837524414 10.25284957885742 35.05598068237305 L 1.318012237548828 20.25925064086914 C 0.5821495056152344 19.04062080383301 0.5239906311035156 17.5721607208252 1.165489196777344 16.40807914733887 L 8.954601287841797 2.273651123046875 C 9.571273803710938 1.154621124267578 10.74431991577148 0.4804916381835938 12.05699157714844 0.4804916381835938 Z" stroke="none" fill="#3597be"/>
          </g>
        </g>
        <g transform="matrix(1, 0, 0, 1, -177.33, -173.97)" filter="url(#路径_4724)">
          <g id="路径_4724-2" data-name="路径 4724" transform="translate(217.29 229.14) rotate(-45)" fill="none" opacity="0.85">
            <path d="M28.942,1.146A4.229,4.229,0,0,1,32.349,3.2L41.284,18a3.86,3.86,0,0,1,.153,3.851L33.647,35.982a3.506,3.506,0,0,1-3.255,1.79L13.66,37.11a4.229,4.229,0,0,1-3.407-2.054l-8.935-14.8a3.86,3.86,0,0,1-.153-3.851L8.955,2.274A3.506,3.506,0,0,1,12.21.484Z" stroke="none"/>
            <path d="M 12.0569896697998 2.480491638183594 C 11.472900390625 2.480491638183594 10.96795082092285 2.764019012451172 10.70623970031738 3.238929748535156 L 2.917121887207031 17.37336921691895 C 2.621219635009766 17.91032981872559 2.664501190185547 18.6199893951416 3.03009033203125 19.22542953491211 L 11.96492958068848 34.02215957641602 C 12.35379981994629 34.66616058349609 13.03367042541504 35.08356857299805 13.73923110961914 35.11151885986328 L 30.47129058837891 35.77413177490234 C 31.08452224731445 35.79853820800781 31.62294387817383 35.51194381713867 31.89559173583984 35.01716995239258 L 39.68471908569336 20.88273048400879 C 39.98062133789062 20.34576988220215 39.93733978271484 19.63610076904297 39.57176208496094 19.03067016601562 L 30.63690948486328 4.233940124511719 C 30.24803924560547 3.589939117431641 29.56817054748535 3.172531127929688 28.86260986328125 3.144580841064453 L 12.13055992126465 2.481960296630859 C 12.1059398651123 2.480979919433594 12.0814208984375 2.480491638183594 12.0569896697998 2.480491638183594 M 12.05699157714844 0.4804916381835938 C 12.10766792297363 0.4804916381835938 12.15854263305664 0.4814987182617188 12.20960998535156 0.4835205078125 L 28.94174957275391 1.146148681640625 C 30.31565093994141 1.2005615234375 31.61429977416992 1.983421325683594 32.34899139404297 3.200111389160156 L 41.28384017944336 17.99684906005859 C 42.01969146728516 19.21547889709473 42.07785034179688 20.68393898010254 41.43635177612305 21.84802055358887 L 33.64723205566406 35.98244857788086 C 33.00675964355469 37.14469146728516 31.76612854003906 37.82697677612305 30.39224052429199 37.7725715637207 L 13.66009140014648 37.10995101928711 C 12.28619003295898 37.05553817749023 10.98754119873047 36.27267837524414 10.25284957885742 35.05598068237305 L 1.318012237548828 20.25925064086914 C 0.5821495056152344 19.04062080383301 0.5239906311035156 17.5721607208252 1.165489196777344 16.40807914733887 L 8.954601287841797 2.273651123046875 C 9.571273803710938 1.154621124267578 10.74431991577148 0.4804916381835938 12.05699157714844 0.4804916381835938 Z" stroke="none" fill="#3597be"/>
          </g>
        </g>
      </g>
    </g>
  </g>
</svg>
