<svg xmlns="http://www.w3.org/2000/svg" xmlns:xlink="http://www.w3.org/1999/xlink" width="1200" height="1227" viewBox="0 0 1200 1227">
  <defs>
    <linearGradient id="linear-gradient" x1="0.752" y1="-0.004" x2="0.248" y2="1.005" gradientUnits="objectBoundingBox">
      <stop offset="0" stop-color="#e8f2fb"/>
      <stop offset="1" stop-color="#f0f5f8"/>
    </linearGradient>
    <linearGradient id="linear-gradient-2" x1="0.747" y1="0.005" x2="0.248" y2="1.005" gradientUnits="objectBoundingBox">
      <stop offset="0" stop-color="#f0f5f8"/>
      <stop offset="1" stop-color="#f6fafd"/>
    </linearGradient>
    <linearGradient id="linear-gradient-7" x1="0.249" y1="0.012" x2="0.749" y2="0.991" gradientUnits="objectBoundingBox">
      <stop offset="0" stop-color="#69a8e7"/>
      <stop offset="1" stop-color="#8cf2f2"/>
    </linearGradient>
    <filter id="多边形_26" x="1069.149" y="159.265" width="226.009" height="226.009" filterUnits="userSpaceOnUse">
      <feOffset dx="-10" dy="20" input="SourceAlpha"/>
      <feGaussianBlur stdDeviation="15" result="blur"/>
      <feFlood flood-color="#6ce2e9" flood-opacity="0.349"/>
      <feComposite operator="in" in2="blur"/>
      <feComposite in="SourceGraphic"/>
    </filter>
    <linearGradient id="linear-gradient-8" x1="0.249" y1="0.012" x2="0.749" y2="0.991" gradientUnits="objectBoundingBox">
      <stop offset="0" stop-color="#2c85dd"/>
      <stop offset="1" stop-color="#3be2e6"/>
    </linearGradient>
    <filter id="多边形_28" x="-89.368" y="905.125" width="226.009" height="226.009" filterUnits="userSpaceOnUse">
      <feOffset dx="10" dy="20" input="SourceAlpha"/>
      <feGaussianBlur stdDeviation="15" result="blur-2"/>
      <feFlood flood-color="#6ce2e9" flood-opacity="0.349"/>
      <feComposite operator="in" in2="blur-2"/>
      <feComposite in="SourceGraphic"/>
    </filter>
    <clipPath id="clip-WEB_3">
      <rect width="1200" height="1227"/>
    </clipPath>
  </defs>
  <g id="WEB_3" data-name="WEB – 3" clip-path="url(#clip-WEB_3)">
    <rect width="1200" height="1227" fill="#fff"/>
    <rect id="矩形_14" data-name="矩形 14" width="1206" height="1227" transform="translate(-3)" fill="#f6fafd"/>
    <g id="组_412" data-name="组 412" transform="translate(-111.588 679.9)">
      <path id="多边形_10" data-name="多边形 10" d="M178.865,0A20,20,0,0,1,196.18,9.991l51.907,89.794a20,20,0,0,1,0,20.019L196.18,209.6a20,20,0,0,1-17.315,9.991H75.008A20,20,0,0,1,57.693,209.6L5.786,119.8a20,20,0,0,1,0-20.019L57.693,9.991A20,20,0,0,1,75.008,0Z" transform="translate(60.724 179.515) rotate(-45)" fill="url(#linear-gradient)"/>
      <path id="多边形_8" data-name="多边形 8" d="M178.865,0A20,20,0,0,1,196.18,9.991l51.907,89.794a20,20,0,0,1,0,20.019L196.18,209.6a20,20,0,0,1-17.315,9.991H75.008A20,20,0,0,1,57.693,209.6L5.786,119.8a20,20,0,0,1,0-20.019L57.693,9.991A20,20,0,0,1,75.008,0Z" transform="translate(0 407.063) rotate(-45)" fill="url(#linear-gradient-2)"/>
      <path id="多边形_9" data-name="多边形 9" d="M178.865,0A20,20,0,0,1,196.18,9.991l51.907,89.794a20,20,0,0,1,0,20.019L196.18,209.6a20,20,0,0,1-17.315,9.991H75.008A20,20,0,0,1,57.693,209.6L5.786,119.8a20,20,0,0,1,0-20.019L57.693,9.991A20,20,0,0,1,75.008,0Z" transform="translate(227.086 346.215) rotate(-45)" fill="url(#linear-gradient-2)"/>
    </g>
    <g id="组_868" data-name="组 868" transform="translate(0 -592.228)">
      <path id="多边形_6" data-name="多边形 6" d="M178.865,0A20,20,0,0,1,196.18,9.991l51.907,89.794a20,20,0,0,1,0,20.019L196.18,209.6a20,20,0,0,1-17.315,9.991H75.008A20,20,0,0,1,57.693,209.6L5.786,119.8a20,20,0,0,1,0-20.019L57.693,9.991A20,20,0,0,1,75.008,0Z" transform="translate(738.327 1032.291) rotate(-45)" fill="url(#linear-gradient-2)"/>
      <path id="多边形_5" data-name="多边形 5" d="M178.865,0A20,20,0,0,1,196.18,9.991l51.907,89.794a20,20,0,0,1,0,20.019L196.18,209.6a20,20,0,0,1-17.315,9.991H75.008A20,20,0,0,1,57.693,209.6L5.786,119.8a20,20,0,0,1,0-20.019L57.693,9.991A20,20,0,0,1,75.008,0Z" transform="translate(799.051 804.743) rotate(-45)" fill="url(#linear-gradient)"/>
      <path id="多边形_7" data-name="多边形 7" d="M178.865,0A20,20,0,0,1,196.18,9.991l51.907,89.794a20,20,0,0,1,0,20.019L196.18,209.6a20,20,0,0,1-17.315,9.991H75.008A20,20,0,0,1,57.693,209.6L5.786,119.8a20,20,0,0,1,0-20.019L57.693,9.991A20,20,0,0,1,75.008,0Z" transform="translate(965.414 971.443) rotate(-45)" fill="url(#linear-gradient-2)"/>
      <g transform="matrix(1, 0, 0, 1, 0, 592.23)" filter="url(#多边形_26)">
        <path id="多边形_26-2" data-name="多边形 26" d="M70.066,0A12,12,0,0,1,80.479,6.036l18.8,32.825a12,12,0,0,1,0,11.928l-18.8,32.825A12,12,0,0,1,70.066,89.65H32.63a12,12,0,0,1-10.413-6.036L3.416,50.789a12,12,0,0,1,0-11.928l18.8-32.825A12,12,0,0,1,32.63,0Z" transform="translate(1124.15 256.88) rotate(-45)" fill="url(#linear-gradient-7)"/>
      </g>
    </g>
    <g transform="matrix(1, 0, 0, 1, 0, 0)" filter="url(#多边形_28)">
      <path id="多边形_28-2" data-name="多边形 28" d="M70.066,0A12,12,0,0,1,80.479,6.036l18.8,32.825a12,12,0,0,1,0,11.928l-18.8,32.825A12,12,0,0,1,70.066,89.65H32.63a12,12,0,0,1-10.413-6.036L3.416,50.789a12,12,0,0,1,0-11.928l18.8-32.825A12,12,0,0,1,32.63,0Z" transform="translate(-54.37 1002.74) rotate(-45)" fill="url(#linear-gradient-8)"/>
    </g>
  </g>
</svg>
