<svg xmlns="http://www.w3.org/2000/svg" viewBox="0 0 82.92 72.34"><defs><style>.cls-1{isolation:isolate;}.cls-2,.cls-7{fill:none;}.cls-2,.cls-4,.cls-7{stroke:#000;stroke-width:3.95px;}.cls-2{stroke-linecap:square;}.cls-2,.cls-4{stroke-linejoin:round;}.cls-3,.cls-4{fill:#fff;}.cls-4,.cls-7{stroke-linecap:round;}.cls-5,.cls-6{fill:#44a6b2;mix-blend-mode:multiply;}.cls-5{opacity:0.5;}.cls-6{opacity:0.7;}.cls-7{stroke-miterlimit:10;}</style></defs><g class="cls-1"><g id="图层_2" data-name="图层 2"><g id="图层_1-2" data-name="图层 1"><path class="cls-2" d="M25.06,7.49s-.63,11.68,16.39,11.19c17.32-.49,16.4-12.16,16.4-12.16"/><circle class="cls-3" cx="58.77" cy="5.55" r="3.97"/><path d="M58.77,3.16a2.39,2.39,0,1,1-2.39,2.39,2.39,2.39,0,0,1,2.39-2.39m0-3.16a5.55,5.55,0,1,0,5.55,5.55A5.55,5.55,0,0,0,58.77,0Z"/><path class="cls-3" d="M24.43,9.52a4,4,0,1,1,4-4A4,4,0,0,1,24.43,9.52Z"/><path d="M24.43,3.16A2.39,2.39,0,1,1,22,5.55a2.39,2.39,0,0,1,2.39-2.39m0-3.16A5.55,5.55,0,1,0,30,5.55,5.56,5.56,0,0,0,24.43,0Z"/><path class="cls-4" d="M63.78,18.7H80.94c0,7-5.32,12.75-11.88,12.75H63.78V18.7Z"/><path class="cls-4" d="M19.13,53V16.69H63.78V53.81"/><path class="cls-4" d="M19.14,31.45H13.86C7.29,31.45,2,25.74,2,18.7H19.14V31.45Z"/><path class="cls-5" d="M64.12,41.35H52.36a9,9,0,0,1-9-9h0V17.49H64.12"/><path class="cls-6" d="M36.34,51.11,20.33,53l-.06-15.13A12.57,12.57,0,0,1,36.34,50Z"/><circle cx="51.02" cy="33.03" r="3.19"/><circle cx="31.89" cy="33.03" r="3.19"/><path class="cls-4" d="M25.9,51.11H57a9.63,9.63,0,0,1,9.63,9.63h0A9.63,9.63,0,0,1,57,70.37H25.9a9.63,9.63,0,0,1-9.62-9.63h0A9.63,9.63,0,0,1,25.9,51.11Z"/><line class="cls-7" x1="29.75" y1="58.45" x2="29.75" y2="63.03"/><line class="cls-7" x1="53.16" y1="58.45" x2="53.16" y2="63.03"/></g></g></g></svg>